<?xml version="1.0" standalone="no"?>
<!DOCTYPE svg PUBLIC "-//W3C//DTD SVG 1.1//EN" "http://www.w3.org/Graphics/SVG/1.1/DTD/svg11.dtd" >
<svg>
<metadata>
Created by FontForge 20110222 at Thu Feb 20 00:48:11 2014
 By Orthosie Webhosting
Typeface (c) (your company). 2014. All Rights Reserved
</metadata>
<defs>
<font id="kanglenavRegularRegularRegularRegular" horiz-adv-x="2048" >
  <font-face 
    font-family="kanglenavRegularRegularRegularRegular"
    font-weight="400"
    font-stretch="normal"
    units-per-em="2048"
    panose-1="2 0 5 0 0 0 0 0 0 0"
    ascent="1638"
    descent="-410"
    x-height="1059"
    cap-height="1462"
    bbox="-342 -421.211 2270 1716"
    underline-thickness="150"
    underline-position="-142"
    unicode-range="U+0020-F002"
  />
<missing-glyph horiz-adv-x="1024" 
d="M100 0v1434h824v-1434h-824zM150 50h724v1334h-724v-1334zM325 1148q31 28 58 43q53 30 112 30q92 0 148 -47.5t56 -127.5q0 -49 -23 -98.5t-87 -129.5q-63 -80 -99 -132t-36 -99q0 -38 24 -133h-32q-35 97 -35 148q0 76 81.5 218t81.5 217q0 57 -33 90t-91 33
q-38 0 -69 -17q-26 -15 -56 -40v45zM389 334l57 58q11 10 20 10q10 0 22 -11l56 -60q9 -11 9 -20q0 -11 -10 -22l-56 -62q-14 -14 -21 -14q-11 0 -20 10l-61 71q-7 9 -7 18q0 10 11 22z" />
    <glyph glyph-name=".notdef" horiz-adv-x="1024" 
d="M100 0v1434h824v-1434h-824zM150 50h724v1334h-724v-1334zM325 1148q31 28 58 43q53 30 112 30q92 0 148 -47.5t56 -127.5q0 -49 -23 -98.5t-87 -129.5q-63 -80 -99 -132t-36 -99q0 -38 24 -133h-32q-35 97 -35 148q0 76 81.5 218t81.5 217q0 57 -33 90t-91 33
q-38 0 -69 -17q-26 -15 -56 -40v45zM389 334l57 58q11 10 20 10q10 0 22 -11l56 -60q9 -11 9 -20q0 -11 -10 -22l-56 -62q-14 -14 -21 -14q-11 0 -20 10l-61 71q-7 9 -7 18q0 10 11 22z" />
    <glyph glyph-name=".null" horiz-adv-x="0" 
 />
    <glyph glyph-name="nonmarkingreturn" horiz-adv-x="508" 
 />
    <glyph glyph-name="space" unicode=" " horiz-adv-x="508" 
 />
    <glyph glyph-name="space" unicode="&#xa0;" horiz-adv-x="508" 
 />
    <glyph glyph-name="exclam" unicode="!" horiz-adv-x="569" 
d="M350 362h-131l-37 1098h205zM188 0v195h195v-195h-195z" />
    <glyph glyph-name="quotedbl" unicode="&#x22;" horiz-adv-x="727" 
d="M94 1462h207v-239l-47 -281h-109l-51 281v239zM426 1462h207v-239l-47 -281h-109l-51 281v239z" />
    <glyph glyph-name="numbersign" unicode="#" horiz-adv-x="1138" 
d="M223 401h-170v148h199l75 364h-274v148h303l82 401h150l-80 -401h252l81 401h150l-80 -401h174v-148h-205l-73 -364h278v-148h-309l-82 -401h-152l84 401h-254l-81 -401h-152zM655 549l76 364h-254l-74 -364h252z" />
    <glyph glyph-name="dollar" unicode="$" horiz-adv-x="1138" 
d="M943 121q-107 -115 -305 -144v-137h-147v133q-138 6 -256 121q-130 126 -156 344h199q3 -130 57 -215q56 -89 156 -104v606q-217 38 -312 154q-65 79 -65 204q-3 121 67 224q107 150 310 178v104h147v-102q153 -10 268 -119q86 -83 115 -246h-197q-15 89 -51 140
q-55 81 -135 84v-486q206 -52 307 -153q110 -107 113 -275q3 -184 -115 -311zM491 1341q-106 -21 -168 -118q-67 -105 -8 -203q54 -89 176 -111v432zM638 674v-551q113 17 184 117q94 137 31 276q-44 101 -215 158z" />
    <glyph glyph-name="percent" unicode="%" horiz-adv-x="1699" 
d="M1491 18q-128 -67 -256 -12q-104 43 -160 162q-103 215 4 432q46 99 141 150q108 58 236 10q125 -47 174 -168q86 -204 14 -393q-47 -127 -153 -181zM561 -94h-195l844 1655h197zM575 723q-136 -72 -266 -8q-126 63 -174 211q-34 104 -18 229q16 133 81 211
q61 76 158 104q108 32 197 -8q113 -53 155 -155q90 -217 21 -406q-47 -123 -154 -178zM1470 553q-33 91 -129 84q-81 -4 -106 -80q-67 -193 10 -367q34 -76 121 -65q84 7 108 86q56 173 -4 342zM419 1341q-76 -10 -112 -98q-58 -156 2 -315q35 -97 119 -97q88 -2 129 93
q55 138 2 319q-34 110 -140 98z" />
    <glyph glyph-name="ampersand" unicode="&#x26;" horiz-adv-x="1320" 
d="M1133 0q-118 139 -133 158q-153 -150 -350 -174q-194 -26 -326 59q-161 103 -195 276q-28 137 50 269q88 152 284 270q-81 99 -137 221q-52 121 8 232q60 113 187 159q162 61 319 -8q133 -59 172 -180q48 -141 -35 -258q-80 -115 -260 -211q146 -204 285 -367
q60 125 72 246h202q-41 -215 -155 -389q43 -59 126 -153q98 -110 130 -150h-244zM754 1333q-62 28 -151 8q-79 -17 -109 -79q-29 -61 6 -136q40 -88 117 -174q128 70 192 154q46 58 25 135q-17 63 -80 92zM566 717q-150 -101 -207 -189q-67 -101 -43 -202q29 -124 141 -179
q94 -46 215 -12q113 33 221 152q-154 183 -327 430z" />
    <glyph glyph-name="quotesingle" unicode="'" horiz-adv-x="391" 
d="M139 946l-47 275v245h207v-245l-49 -275h-111z" />
    <glyph glyph-name="parenleft" unicode="(" horiz-adv-x="681" 
d="M870 1524q-272 -289 -354 -594q-82 -311 21 -621q85 -263 323 -532h-241q-177 227 -261 495q-109 359 -22 695q68 271 295 557h239z" />
    <glyph glyph-name="parenright" unicode=")" horiz-adv-x="681" 
d="M272 1524q227 -286 295 -557q86 -336 -23 -695q-83 -268 -260 -495h-242q239 269 324 532q102 310 20 621q-82 305 -354 594h240z" />
    <glyph glyph-name="asterisk" unicode="*" horiz-adv-x="796" 
d="M114 1339q166 -60 229 -98l-2 23q-16 188 -16 227h143q-4 -142 -18 -225l-4 -23q99 50 235 96l48 -143q-123 -41 -250 -55l18 -17q-9 8 68 -73l86 -99l-119 -86q-43 58 -125 195l-12 20l-11 -18q-80 -144 -120 -197l-117 86l84 101q57 67 82 88q-135 27 -246 55z" />
    <glyph glyph-name="plus" unicode="+" horiz-adv-x="1196" 
d="M511 649h-397v168h397v400h172v-400h398v-168h-398v-401h-172v401z" />
    <glyph glyph-name="comma" unicode="," horiz-adv-x="569" 
d="M379 195q22 -251 -78 -451h-129q78 106 100 256h-96v195h203z" />
    <glyph glyph-name="hyphen" unicode="-" horiz-adv-x="681" 
d="M65 823h551v-180h-551v180z" />
    <glyph glyph-name="hyphen" unicode="&#xad;" horiz-adv-x="681" 
d="M65 823h551v-180h-551v180z" />
    <glyph glyph-name="period" unicode="." horiz-adv-x="569" 
d="M176 0v195h203v-195h-203z" />
    <glyph glyph-name="slash" unicode="/" horiz-adv-x="569" 
d="M416 1462h145l-410 -1462h-145z" />
    <glyph glyph-name="zero" unicode="0" horiz-adv-x="1138" 
d="M786 37q-161 -96 -363 -47q-182 45 -268 203q-102 184 -104 522q-2 344 104 542q83 157 274 201q165 35 301 -16q146 -58 205 -182q158 -332 60 -900q-40 -221 -209 -323zM650 1311q-112 44 -217 0q-115 -53 -147 -162q-58 -201 -54 -462q5 -291 93 -447q43 -81 137 -111
q114 -34 213 21q96 53 123 149q136 455 0 856q-36 112 -148 156z" />
    <glyph glyph-name="one" unicode="1" horiz-adv-x="1138" 
d="M536 0v1161q-173 -167 -362 -260v199q259 128 387 364h158v-1464h-183z" />
    <glyph glyph-name="two" unicode="2" horiz-adv-x="1138" 
d="M254 0q-97 0 -122 88q-25 77 30 145q152 193 361 318q122 72 252 192q98 95 141 211q55 148 6 252q-60 120 -203 133q-134 16 -245 -57q-97 -67 -109 -252h-186q16 215 174 344q125 102 313 109q235 7 365 -137q118 -128 92 -320q-25 -193 -199 -371q-118 -120 -289 -233
q-194 -132 -288 -258q-18 -23 12 -23h784v-141h-889z" />
    <glyph glyph-name="three" unicode="3" horiz-adv-x="1138" 
d="M981 176q-120 -170 -363 -194q-193 -18 -323 71q-175 119 -207 381h182q31 -190 142 -268q103 -70 239 -35q139 39 199 164q54 117 18 246q-38 129 -172 161q-135 33 -256 -10v164q234 0 342 135q83 101 13 234q-55 108 -197 118q-139 7 -213 -69q-86 -86 -86 -209h-191
q7 205 199 338q129 90 299 80q236 -14 348 -185q83 -127 33 -270q-51 -139 -215 -219q97 -20 178 -100q81 -81 101 -179q41 -198 -70 -354z" />
    <glyph glyph-name="four" unicode="4" horiz-adv-x="1138" 
d="M961 358v-356h-184v356h-537q-73 0 -104 60q-31 58 14 123l600 878q55 80 133 51q78 -25 78 -120v-852h203v-140h-203zM777 1149l-442 -651h442v651z" />
    <glyph glyph-name="five" unicode="5" horiz-adv-x="1138" 
d="M923 154q-127 -155 -331 -170q-194 -14 -324 90q-157 124 -174 358h193q3 -172 94 -252q96 -83 227 -53q126 27 199 156q101 173 45 370q-35 124 -142 183q-103 56 -223 12q-103 -37 -180 -166h-193l138 635q13 66 80 110q56 37 124 37h537v-145h-524q-39 0 -47 -41
l-78 -367q139 103 313 90q165 -12 275 -143q95 -117 112 -278q23 -252 -121 -426z" />
    <glyph glyph-name="six" unicode="6" horiz-adv-x="1138" 
d="M852 1094q-17 128 -88 196q-75 70 -199 51q-105 -17 -180 -124q-107 -153 -103 -469q85 196 297 210q182 10 304 -90q112 -91 149 -254q54 -251 -90 -452q-96 -131 -264 -168q-177 -36 -312 39q-168 92 -219 272q-55 199 -55 402q0 354 150 591q97 152 288 179
q202 29 348 -84q135 -103 168 -299h-194zM721 778q-133 76 -254 0q-134 -84 -158 -256q-25 -201 102 -325q97 -90 213 -66q108 20 173 123q88 145 51 326q-28 139 -127 198z" />
    <glyph glyph-name="seven" unicode="7" horiz-adv-x="1138" 
d="M1040 1268q-479 -506 -557 -1268h-189q97 786 541 1307q5 4 2 10t-10 6h-764v139h905q82 0 107 -67q21 -68 -35 -127z" />
    <glyph glyph-name="eight" unicode="8" horiz-adv-x="1138" 
d="M1038 135q-135 -159 -381 -155q-267 3 -401 194q-106 149 -74 348q29 199 248 285q-173 98 -189 262q-12 171 93 289q120 132 344 125q196 -4 311 -133q112 -129 78 -301q-28 -150 -187 -242q207 -64 252 -295q41 -219 -94 -377zM653 1341q-146 0 -205 -108
q-60 -110 -6 -225q62 -134 209 -134q156 0 217 136q46 106 4 207q-54 128 -219 124zM721 719q-187 26 -285 -80q-128 -141 -51 -334q56 -148 225 -174q202 -31 299 125q90 143 25 305q-52 133 -213 158z" />
    <glyph glyph-name="nine" unicode="9" horiz-adv-x="1138" 
d="M855 74q-131 -110 -328 -92q-158 16 -266 120q-88 88 -125 267h201q18 -127 76 -187q72 -72 192 -57q94 10 170 98q119 144 127 463q-79 -132 -235 -172q-150 -36 -281 25q-153 69 -213 219q-53 134 -34 287q20 157 108 266q151 190 387 174q214 -14 328 -178
q122 -177 133 -467q6 -241 -60 -461q-61 -205 -180 -305zM574 1335q-145 -16 -215 -166q-102 -224 21 -407q68 -103 205 -107q144 -6 225 111q55 82 61 209q7 131 -45 217q-97 158 -252 143z" />
    <glyph glyph-name="colon" unicode=":" horiz-adv-x="569" 
d="M182 0v193h205v-193h-205zM176 700v193h205v-193h-205z" />
    <glyph glyph-name="semicolon" unicode=";" horiz-adv-x="569" 
d="M175 700v193h205v-193h-205zM380 188q13 -285 -102 -495h-121q102 147 119 307h-101v188h205z" />
    <glyph glyph-name="semicolon" unicode="&#x37e;" horiz-adv-x="569" 
d="M175 700v193h205v-193h-205zM380 188q13 -285 -102 -495h-121q102 147 119 307h-101v188h205z" />
    <glyph glyph-name="less" unicode="&#x3c;" horiz-adv-x="1196" 
d="M112 817l971 410v-178l-770 -316l770 -319v-178l-971 413v168z" />
    <glyph glyph-name="equal" unicode="=" horiz-adv-x="1196" 
d="M114 436v166h967v-166h-967zM114 862v168h967v-168h-967z" />
    <glyph glyph-name="greater" unicode="&#x3e;" horiz-adv-x="1196" 
d="M112 236v178l770 319l-770 316v178l971 -410v-168z" />
    <glyph glyph-name="question" unicode="?" horiz-adv-x="1138" 
d="M894 741q-165 -117 -207 -200q-39 -75 -28 -219h-193q-3 116 31 221q55 162 176 241q199 129 205 299q6 159 -156 226q-193 79 -340 -31q-119 -89 -119 -274h-186q10 221 164 356q109 95 287 113q236 24 391 -101q159 -126 141 -311q-22 -218 -166 -320zM460 2v193h197
v-193h-197z" />
    <glyph glyph-name="at" unicode="@" horiz-adv-x="1888" 
d="M2270 313q-144 -298 -514 -403q-338 -97 -656 -23q-318 76 -467 330q-218 367 -49 821q130 355 457 488q349 140 669 33q338 -114 443 -429q51 -154 31 -323q-22 -174 -111 -295q-168 -227 -438 -285q-73 -15 -117 29q-32 32 -41 80q-107 -110 -262 -107q-151 7 -248 136
q-104 142 -82 374q27 293 256 445q116 75 258 45q114 -22 189 -125l22 115h182l-118 -775q-6 -20 20 -12q118 43 205 148q87 104 108 227q53 288 -157 479q-122 109 -313 134q-174 23 -349 -29q-321 -96 -442 -420q-128 -344 22 -631q108 -209 357 -283q243 -70 514 -4
q280 71 407 260h224zM1393 1083q-138 24 -233 -110q-145 -207 -93 -434q28 -122 142 -152q122 -31 209 62q64 69 107 210q44 141 30 238q-26 160 -162 186z" />
    <glyph glyph-name="A" unicode="A" horiz-adv-x="1511" 
d="M1263 0l-185 434h-655l-180 -434h-203l608 1462h191l631 -1462h-207zM745 1198l-263 -620h533z" />
    <glyph glyph-name="B" unicode="B" horiz-adv-x="1236" 
d="M1038 82q-89 -80 -287 -80h-479q-77 0 -131 57q-47 54 -47 119v1112q0 80 55 129q52 45 129 45h496q181 0 281 -161q90 -146 38 -330q-36 -135 -168 -211q129 -28 203 -154q70 -119 41 -286q-26 -147 -131 -240zM749 1327h-411q-60 0 -60 -55v-443h445q112 0 176 103
q77 123 16 278q-44 117 -166 117zM919 625q-66 63 -196 63h-445v-489q0 -56 58 -56h387q157 0 219 72q62 68 57 197q-4 142 -80 213z" />
    <glyph glyph-name="C" unicode="C" horiz-adv-x="1478" 
d="M1444 481q-94 -304 -344 -428q-201 -99 -452 -63q-244 32 -391 203q-177 203 -181 516q-7 500 347 690q307 168 636 28q247 -104 361 -399h-211q-109 208 -268 275q-188 74 -353 8q-337 -134 -325 -594q11 -377 258 -529q102 -63 238 -65q138 -2 245 59q165 95 230 299
h210z" />
    <glyph glyph-name="D" unicode="D" horiz-adv-x="1368" 
d="M1241 360q-41 -142 -176 -254q-125 -104 -314 -104h-471q-90 0 -139 49q-47 44 -47 121v1128q0 71 41 115q46 49 129 49h520q131 0 250 -73q129 -83 186 -213q71 -169 74 -379q7 -228 -53 -439zM1057 1108q-54 116 -158 170q-92 49 -225 49h-342q-54 0 -54 -55v-1077
q0 -19 20 -36q20 -18 42 -18h385q119 0 225 82q89 73 131 205q38 121 33 373q0 175 -57 307z" />
    <glyph glyph-name="E" unicode="E" horiz-adv-x="1257" 
d="M280 2q-95 0 -143 57q-45 51 -45 138v1075q0 88 49 137q59 55 162 55h868v-143h-835q-62 0 -62 -59v-431h832v-143h-832v-483q0 -62 68 -62h829v-141h-891z" />
    <glyph glyph-name="F" unicode="F" horiz-adv-x="1224" 
d="M342 1321q-24 0 -44 -20t-20 -44v-426h758v-143h-758v-688h-182v1307q0 65 47 112q45 45 123 45h889v-143h-813z" />
    <glyph glyph-name="G" unicode="G" horiz-adv-x="1482" 
d="M1251 1004q-21 181 -161 274q-135 90 -363 51q-214 -34 -334 -209q-97 -142 -109 -339q-11 -189 58 -353q77 -185 264 -264q153 -65 320 -21q180 45 338 213v193q0 41 -39 41h-404v143h478q65 0 110 -55q35 -44 35 -98v-578h-180v176q-113 -115 -287 -168
q-207 -59 -397 2q-207 65 -340 250q-131 184 -137 395q-14 346 151 564q132 170 352 231q214 56 416 6q180 -43 289 -170q102 -121 135 -284h-195z" />
    <glyph glyph-name="H" unicode="H" horiz-adv-x="1335" 
d="M1052 0v686h-770v-686h-186v1462h186v-635h770v635h187v-1462h-187z" />
    <glyph glyph-name="I" unicode="I" horiz-adv-x="569" 
d="M190 0v1462h188v-1462h-188z" />
    <glyph glyph-name="J" unicode="J" horiz-adv-x="946" 
d="M853 436q0 -222 -90 -325q-110 -125 -317 -125q-168 0 -270 94q-115 105 -150 385h190q0 -185 72 -268q59 -69 156 -72q90 -3 149 53q76 73 76 178v1108h184v-1028z" />
    <glyph glyph-name="K" unicode="K" horiz-adv-x="1306" 
d="M1056 2l-563 713l-207 -205v-510h-188v1464h188v-702l689 702h251l-606 -618l668 -844h-232z" />
    <glyph glyph-name="L" unicode="L" horiz-adv-x="1122" 
d="M250 2q-77 0 -117 47q-33 39 -33 101v1316h184v-1265q0 -58 54 -58h720v-141h-808z" />
    <glyph glyph-name="M" unicode="M" horiz-adv-x="1597" 
d="M1325 0v1032l-447 -1032h-153l-453 1024v-1024h-178v1464h180l527 -1196l518 1196h184v-1464h-178z" />
    <glyph glyph-name="N" unicode="N" horiz-adv-x="1372" 
d="M1085 2l-807 1151v-1151h-184v1462h186l818 -1165v1165h180v-1462h-193z" />
    <glyph glyph-name="O" unicode="O" horiz-adv-x="1548" 
d="M1590 553q-38 -211 -161 -350q-139 -157 -360 -203q-206 -43 -416 23q-317 99 -420 473q-60 218 -8 438q54 229 213 375q228 210 579 157q446 -65 560 -518q49 -196 13 -395zM1083 1300q-127 52 -269 24q-140 -27 -239 -122q-242 -231 -160 -663q25 -136 130 -252
q108 -118 241 -150q266 -62 447 109q124 119 165 308q37 174 -6 355q-68 290 -309 391z" />
    <glyph glyph-name="P" unicode="P" horiz-adv-x="1290" 
d="M1134 760q-126 -137 -344 -137h-506v-623h-186v1270q0 78 53 135q54 57 131 57h547q193 0 303 -131q94 -112 94 -289q4 -178 -92 -282zM987 1231q-75 92 -221 92h-432q-50 0 -50 -51v-506h480q129 0 204 70q64 64 68 174q4 152 -49 221z" />
    <glyph glyph-name="Q" unicode="Q" horiz-adv-x="1556" 
d="M1416 2q-45 26 -100 74q-233 -133 -512 -72q-255 55 -403 277q-188 275 -107 663q34 159 136 291q111 144 259 197q272 99 537 10q255 -84 371 -340q86 -189 73 -408q-20 -311 -223 -514q259 -154 309 -178h-340zM1416 1071q-91 193 -288 250q-189 55 -361 -23
q-179 -82 -262 -288q-122 -295 10 -582q89 -194 273 -264q190 -74 368 6q-171 116 -272 219h266q92 -79 162 -121q153 172 174 363q27 237 -70 440z" />
    <glyph glyph-name="R" unicode="R" horiz-adv-x="1429" 
d="M1161 0q-95 120 -238 379q-135 243 -327 307h-320v-686h-184v1274q0 76 53 129q56 59 142 59h624q158 0 266 -135q90 -117 80 -274q-6 -145 -98 -246q-111 -121 -272 -115q116 -98 192 -229q179 -307 332 -463h-250zM1018 1247q-64 74 -158 74h-522q-22 0 -42 -18
t-20 -39v-435h553q111 0 176 66q59 62 66 160q11 116 -53 192z" />
    <glyph glyph-name="S" unicode="S" horiz-adv-x="1318" 
d="M1042 1051q-15 130 -70 196q-54 62 -157 82q-144 31 -326 -10q-111 -24 -160 -131q-46 -103 9 -199q38 -73 165 -98q361 -77 500 -123q146 -46 213 -166q87 -156 17 -334q-45 -119 -173 -196q-180 -108 -489 -82q-232 18 -362 151q-112 115 -150 322h190
q14 -159 136 -252q105 -77 268 -84q198 -13 319 68q107 72 107 208q3 145 -135 199q-116 47 -383 92q-227 42 -332 142q-139 129 -86 329q40 161 186 244q219 124 557 55q159 -32 258 -172q61 -84 91 -241h-193z" />
    <glyph glyph-name="T" unicode="T" horiz-adv-x="1269" 
d="M732 1321v-1321h-186v1321h-510v145h1196v-145h-500z" />
    <glyph glyph-name="U" unicode="U" horiz-adv-x="1372" 
d="M1280 440q0 -138 -81 -252q-79 -112 -208 -163q-118 -46 -302 -46q-189 0 -306 50q-291 122 -291 424v1011h188v-1011q0 -101 57 -184q57 -84 150 -119q202 -78 412 14q194 87 194 358v942h187v-1024z" />
    <glyph glyph-name="V" unicode="V" horiz-adv-x="1462" 
d="M841 2h-213l-610 1462h205l514 -1257l495 1257h211z" />
    <glyph glyph-name="W" unicode="W" horiz-adv-x="1851" 
d="M1454 0h-185l-344 1114l-311 -1114h-195l-395 1464h182l316 -1142l317 1142h170l342 -1120l293 1120h182z" />
    <glyph glyph-name="X" unicode="X" horiz-adv-x="1404" 
d="M1132 0l-432 596l-426 -596h-248l549 766l-508 696h242l385 -528l374 528h248l-499 -698l561 -764h-246z" />
    <glyph glyph-name="Y" unicode="Y" horiz-adv-x="1433" 
d="M813 666v-664h-187v657l-604 805h233l457 -612l461 612h238z" />
    <glyph glyph-name="Z" unicode="Z" horiz-adv-x="1257" 
d="M277 2q-87 0 -123 74q-38 77 19 149l860 1071q6 8 1 18q-6 9 -15 9h-826v141h965q76 0 104 -75q25 -70 -26 -134l-873 -1089q-5 -5 -1 -14t14 -9h925v-141h-1024z" />
    <glyph glyph-name="bracketleft" unicode="[" horiz-adv-x="569" 
d="M135 1524h397v-150h-217v-1448h217v-149h-397v1747z" />
    <glyph glyph-name="backslash" unicode="\" horiz-adv-x="569" 
d="M151 1462l410 -1462h-145l-410 1462h145z" />
    <glyph glyph-name="bracketright" unicode="]" horiz-adv-x="569" 
d="M34 -225v149h217v1448h-217v150h397v-1747h-397z" />
    <glyph glyph-name="asciicircum" unicode="^" horiz-adv-x="960" 
d="M53 690l354 801h146l354 -801h-182l-246 598l-242 -598h-184z" />
    <glyph glyph-name="underscore" unicode="_" horiz-adv-x="1138" 
d="M-26 -276h1192v-132h-1192v132z" />
    <glyph glyph-name="grave" unicode="`" horiz-adv-x="681" 
d="M319 1194l-231 281h242l135 -281h-146z" />
    <glyph glyph-name="a" unicode="a" horiz-adv-x="1138" 
d="M924 0q-32 78 -41 141q-150 -137 -332 -157q-156 -19 -262 39q-107 58 -139 163q-39 120 4 236q47 121 186 170q75 27 265 45q170 14 262 96q9 92 -39 146q-52 54 -150 65q-117 17 -229 -31q-97 -41 -127 -155h-193q23 175 215 268q141 67 326 59q195 -7 297 -112
q85 -91 82 -254q-4 -239 0 -408q3 -177 76 -311h-201zM863 563q-123 -65 -234 -74q-133 -11 -194 -32q-74 -28 -101 -86q-29 -68 -6 -140q23 -66 102 -94q54 -17 132 -2q195 32 301 197v231z" />
    <glyph glyph-name="b" unicode="b" horiz-adv-x="1114" 
d="M1040 420q-27 -206 -154 -330q-116 -116 -284 -113q-166 3 -304 154v-131h-188v1464h188v-526q171 181 400 139q102 -20 191 -103t118 -183q57 -190 33 -371zM855 540q-4 155 -55 261q-62 124 -201 131q-148 6 -239 -144q-69 -112 -70 -266q0 -158 74 -262
q100 -140 235 -131q137 9 209 150q51 101 47 261z" />
    <glyph glyph-name="c" unicode="c" horiz-adv-x="1060" 
d="M1070 391q-28 -175 -142 -289q-111 -114 -299 -120q-183 -10 -317 102q-136 113 -166 341q-27 201 35 370q59 161 242 245q209 100 411 -10q180 -99 221 -278h-198q-54 161 -185 188q-183 36 -288 -125q-71 -106 -70 -269q0 -153 61 -274q57 -115 183 -145
q132 -34 223 51q88 81 100 213h189z" />
    <glyph glyph-name="d" unicode="d" horiz-adv-x="1114" 
d="M1131 0v125q-121 -127 -252 -141q-141 -13 -252 47q-122 65 -180 198q-128 301 -6 580q67 161 211 235q126 68 274 35q120 -29 205 -141v526h186v-1464h-186zM986 894q-69 48 -144 48q-161 0 -233 -182q-95 -247 14 -486q67 -145 211 -145q153 3 229 113q146 208 17 534
q-27 70 -94 118z" />
    <glyph glyph-name="e" unicode="e" horiz-adv-x="1138" 
d="M1067 344q-50 -209 -192 -303q-124 -81 -348 -61q-216 20 -326 176q-116 163 -113 387q0 178 82 323q124 216 412 219q229 4 356 -141q122 -137 111 -344q-6 -102 -113 -102h-657q22 -222 145 -322q76 -62 203 -55q99 7 158 65q56 57 79 158h203zM764 897
q-116 81 -293 25q-176 -54 -184 -281h547q39 0 39 45q0 134 -109 211z" />
    <glyph glyph-name="f" unicode="f" horiz-adv-x="667" 
d="M459 1321q-34 0 -57 -27q-21 -25 -21 -57v-172h207v-141h-207v-924h-189v924h-182v141h182v176q0 112 62 170q56 53 162 53h237v-143h-194z" />
    <glyph glyph-name="g" unicode="g" horiz-adv-x="1101" 
d="M1124 37q0 -199 -104 -318q-105 -119 -309 -137q-208 -17 -330 56q-157 90 -164 274h180q7 -140 119 -168q114 -28 213 -14q126 18 178 125q39 76 39 282q-96 -99 -227 -127q-185 -39 -330 66q-123 91 -166 225q-64 203 -20 406q41 177 159 278q119 103 291 96
q164 -8 293 -147v131h178v-1028zM950 560q-4 168 -69 255q-88 119 -230 119q-151 -3 -227 -139q-47 -85 -50 -237q-4 -149 36 -239q71 -165 235 -172q175 -6 258 154q51 99 47 259z" />
    <glyph glyph-name="h" unicode="h" horiz-adv-x="1122" 
d="M839 0v707q0 133 -98 196q-80 52 -233 21q-159 -33 -226 -201v-723h-180v1464h180v-522q125 121 291 137q208 23 328 -86q119 -112 119 -260v-733h-181z" />
    <glyph glyph-name="i" unicode="i" horiz-adv-x="569" 
d="M190 1274v190h188v-190h-188zM190 2v1063h188v-1063h-188z" />
    <glyph glyph-name="j" unicode="j" horiz-adv-x="495" 
d="M164 1325v191h182v-191h-182zM346 -205q0 -70 -47 -110q-48 -45 -137 -45h-186l-72 143h223q37 0 37 29v1304h182v-1321z" />
    <glyph glyph-name="k" unicode="k" horiz-adv-x="1036" 
d="M788 0l-399 549l-111 -98v-451h-190v1464h190v-768l400 369h272l-426 -389l494 -676h-230z" />
    <glyph glyph-name="l" unicode="l" horiz-adv-x="454" 
d="M131 0v1464h193v-1464h-193z" />
    <glyph glyph-name="m" unicode="m" horiz-adv-x="1658" 
d="M1384 0v741q0 114 -61 162q-87 68 -221 27q-114 -34 -185 -158v-772h-178v752q0 140 -121 186q-100 37 -205 -23q-108 -60 -137 -184v-731h-178v1065h178v-125q101 115 207 139q117 30 229 -16q107 -43 160 -131q95 122 275 149q203 30 319 -77q94 -84 94 -256v-748h-176
z" />
    <glyph glyph-name="n" unicode="n" horiz-adv-x="1064" 
d="M782 0v690q0 190 -123 238q-128 48 -254 -29q-123 -74 -123 -242v-657h-184v1065h160v-121q84 103 229 131q204 39 346 -69q133 -101 133 -285v-721h-184z" />
    <glyph glyph-name="o" unicode="o" horiz-adv-x="1138" 
d="M985 16q-201 -83 -414 9q-195 84 -256 278q-82 269 19 498q84 197 295 258q220 64 403 -37q163 -91 217 -281q60 -211 4 -428q-53 -208 -268 -297zM762 938q-87 -3 -160 -55q-77 -54 -102 -135q-57 -185 -4 -412q16 -77 82 -137q65 -57 145 -70q97 -15 183 17
q96 36 136 118q118 238 9 512q-68 173 -289 162z" />
    <glyph glyph-name="p" unicode="p" horiz-adv-x="1138" 
d="M835 43q-124 -76 -267 -57q-168 20 -264 153v-551h-182v1475h182v-156q79 136 234 168q154 32 295 -55q119 -71 178 -229q100 -273 4 -527q-54 -144 -180 -221zM869 539q-2 152 -67 268q-64 114 -186 127q-144 13 -222 -98q-80 -114 -85 -277q-4 -157 61 -287
q74 -144 229 -147q140 -3 211 143q61 121 59 271z" />
    <glyph glyph-name="q" unicode="q" horiz-adv-x="1138" 
d="M1051 -414v523q-87 -110 -244 -127q-151 -15 -268 53q-120 73 -186 233q-94 233 -6 486q60 177 213 270q117 70 258 57q125 -9 233 -129v113h189v-1479h-189zM988 813q-65 133 -193 133q-127 0 -211 -110q-86 -113 -87 -302q-1 -190 83 -303q89 -119 221 -104
q133 17 203 160q123 243 -16 526z" />
    <glyph glyph-name="r" unicode="r" horiz-adv-x="716" 
d="M679 807q-84 84 -174 96q-79 12 -146 -55q-69 -72 -96 -219v-627h-180v1063h180v-133q77 122 187 141q108 20 229 -55v-211z" />
    <glyph glyph-name="s" unicode="s" horiz-adv-x="1024" 
d="M866 92q-103 -102 -330 -115q-192 -7 -307 86q-121 98 -164 279h195q14 -117 88 -176q61 -50 200 -45q118 3 187 69q44 44 37 117q-6 65 -80 103q-128 62 -344 110q-151 38 -211 135q-70 119 -13 238q58 125 197 168q229 70 424 -29q133 -68 188 -266h-198
q-27 122 -119 160q-59 23 -141 17q-87 -5 -136 -42q-78 -59 -51 -133q20 -57 115 -82q265 -68 405 -137q143 -68 150 -225q6 -133 -92 -232z" />
    <glyph glyph-name="t" unicode="t" horiz-adv-x="614" 
d="M520 2h-166q-86 0 -129 43q-47 44 -47 131v748h-150v139h150v401h182v-399h209v-141h-209v-725q0 -56 59 -56h182z" />
    <glyph glyph-name="u" unicode="u" horiz-adv-x="1138" 
d="M823 0v135q-94 -126 -252 -151q-178 -28 -305 65q-137 104 -137 291v725h188v-750q0 -112 88 -168q75 -47 177 -18q168 44 241 205v731h187l-2 -1065h-185z" />
    <glyph glyph-name="v" unicode="v" horiz-adv-x="1040" 
d="M630 0h-180l-424 1063h205l305 -782l278 782h199z" />
    <glyph glyph-name="w" unicode="w" horiz-adv-x="1585" 
d="M43 1063h193l235 -842h4l10 55l25 82l20 82l172 623h193l162 -617q13 -51 20 -75l33 -127h4q10 42 33 118l29 87l186 614h180l-342 -1061h-192l-174 643l-39 180h-7l-219 -823h-192z" />
    <glyph glyph-name="x" unicode="x" horiz-adv-x="1126" 
d="M864 0l-303 383l-289 -383h-234l404 535l-416 528h236l296 -373l281 373h234l-396 -524l422 -539h-235z" />
    <glyph glyph-name="y" unicode="y" horiz-adv-x="1122" 
d="M526 -281q-30 -69 -86 -100q-53 -31 -119 -31h-146l-84 144h185q56 0 80 59l104 256l-430 1018h207l323 -766l320 766h211z" />
    <glyph glyph-name="z" unicode="z" horiz-adv-x="1064" 
d="M251 0q-88 0 -120 72q-33 68 26 131l651 698q5 6 1 15q-4 10 -11 10h-639v139h793q69 0 102 -66q33 -70 -22 -129l-344 -368q-225 -240 -318 -342q-5 -5 -2 -12t10 -7h731v-141h-858z" />
    <glyph glyph-name="braceleft" unicode="{" horiz-adv-x="684" 
d="M47 723q61 0 98 18q69 34 91 99t22 235q2 286 72 365q68 82 252 82h57v-142h-33q-108 0 -141 -36t-33 -152v-133q0 -267 -113 -354q-34 -28 -102 -56q120 -44 167 -135q48 -91 48 -276v-132q0 -117 33 -152q32 -36 141 -36h33v-141h-57q-185 0 -252 82q-70 81 -72 364
q0 171 -22 234q-21 64 -91 98q-44 20 -98 20v148z" />
    <glyph glyph-name="bar" unicode="|" horiz-adv-x="532" 
d="M188 1522h156v-1745h-156v1745z" />
    <glyph glyph-name="braceright" unicode="}" horiz-adv-x="684" 
d="M639 575q-57 0 -98 -20q-70 -34 -91 -98q-22 -63 -22 -234q-2 -281 -72 -364q-70 -82 -254 -82h-55v141h31q110 0 143 36q33 35 33 152v132q0 186 46 276q47 91 167 135q-63 26 -103 56q-110 87 -110 354v133q0 116 -33 152q-34 36 -143 36h-31v142h55q183 0 254 -82
q70 -82 72 -365q0 -172 21 -235q21 -65 92 -99q36 -18 98 -18v-148z" />
    <glyph glyph-name="asciitilde" unicode="~" horiz-adv-x="1014" 
d="M923 878v-156q-63 -72 -122 -97.5t-116 -25.5q-60 0 -177.5 48.5t-176.5 48.5q-51 0 -107.5 -28t-129.5 -112v156q64 73 123 99t114 26q64 0 181.5 -49.5t172.5 -49.5q52 0 108.5 28t129.5 112z" />
    <glyph glyph-name="exclamdown" unicode="&#xa1;" horiz-adv-x="672" 
 />
    <glyph glyph-name="cent" unicode="&#xa2;" horiz-adv-x="1139" 
 />
    <glyph glyph-name="sterling" unicode="&#xa3;" horiz-adv-x="1014" 
d="M748 1347q-72 31 -160 31h-2q-100 0 -190 -101q-84 -93 -84 -241q0 -15 1 -30q0 -135 53 -273h360v-60h-334q14 -30 31 -60q35 -63 35 -138q0 -161 -162 -375h402q130 0 189 132l49 -1l-103 -231h-719l1 50q187 238 187 418q0 77 -34 143q-17 32 -31 62h-161v60h135
q-58 143 -58 253q0 226 123.5 347t306.5 121h4q75 0 185.5 -14t110.5 -34v-161h-58q-5 61 -77 102z" />
    <glyph glyph-name="currency" unicode="&#xa4;" horiz-adv-x="1014" 
d="M350 560q41 -40 99 -57q29 -8 58 -8t58 8q58 17 99 57q40 41 57 99q9 29 9 58t-9 58q-17 58 -57 99q-41 40 -100 57q-29 8 -58 8t-58 -9q-58 -17 -98 -56q-39 -40 -56 -98q-10 -30 -10 -60q0 -28 9 -56q16 -59 57 -100zM240 903l-118 118l80 81l118 -118q44 30 99 46
q44 14 89 14q41 0 83 -12q57 -17 102 -48l118 118l80 -81l-117 -117q31 -46 48 -102q12 -42 12 -85q0 -42 -12 -85q-17 -56 -48 -102l117 -117l-80 -81l-118 118q-45 -32 -101 -48q-42 -12 -85 -12q-42 0 -85 12q-57 16 -102 48l-118 -118l-80 81l118 117q-32 46 -48 103
q-12 42 -12 84q0 44 13 87q16 55 47 99z" />
    <glyph glyph-name="yen" unicode="&#xa5;" horiz-adv-x="1262" 
d="M547 225l-2 242q0 19 -1.5 35t-4.5 32l-484 1q-14 0 -21 6.5t-7 19.5t6.5 19t21.5 6h467l-121 172h-344q-17 0 -23.5 5.5t-6.5 18.5q0 14 6 19.5t22 5.5h307q-43 57 -108 155q-131 197 -227 197q-7 0 -13 5.5t-6 11.5q0 19 10.5 27.5t32.5 8.5q27 0 123 -8t164 -8h88
q33 0 41 -6.5t8 -26.5q0 -8 -15 -14t-38 -6q-6 0 -18.5 2t-18.5 2q-24 0 -37.5 -9.5t-13.5 -25.5q0 -18 16.5 -52t46.5 -77l158 -221q13 -19 33 -53q41 -70 71 -70q9 0 16.5 5t14.5 15l277 396q8 12 13 26.5t5 24.5q0 18 -10 27t-37 14q-15 2 -41 4q-47 3 -47 25
q0 15 8 22.5t25 7.5q3 0 15 -1q56 -7 108 -7h139q30 0 65 1t37 1q11 0 18.5 -4.5t8.5 -11.5q0 -28 -38 -34q-18 -3 -27 -5q-63 -15 -147 -117q-7 -9 -12 -15l-169 -206h323q15 0 24 -6t9 -17q0 -15 -6 -20.5t-23 -5.5h-366q-46 -57 -96.5 -112.5t-52.5 -59.5h511
q18 0 25.5 -5.5t7.5 -17.5q0 -14 -7 -21t-22 -7h-530q0 -11 -1 -30.5t-1 -29.5l2 -215q0 -114 5.5 -150t20.5 -44q30 -17 107.5 -19t77.5 -31q0 -12 -10 -20t-25 -8q-2 0 -35.5 4t-64.5 4q-91 0 -208.5 -4t-142.5 -4q-31 0 -40 4t-9 16t8 18.5t37 12.5q9 2 25 5q74 16 92 32
q17 13 24 47t7 102z" />
    <glyph glyph-name="brokenbar" unicode="&#xa6;" horiz-adv-x="1014" 
d="M427 371h160v-789h-160v789zM427 1578h160v-789h-160v789z" />
    <glyph glyph-name="section" unicode="&#xa7;" horiz-adv-x="1014" 
d="M545 321q56 16 97 53q73 65 73 166q0 5 -1 10h-2q-1 14 -4 27q-22 61 -113 127q-59 29 -126 29q-78 0 -125 -44.5t-47 -117.5q0 -123 248 -250zM466 -346q113 6 185 69q72 64 72 165q0 125 -316 276q-123 64 -175.5 137t-52.5 177q0 148 89 237q67 65 170 82l-40 19
q-123 64 -175.5 137t-52.5 177q0 148 89 237q82 79 216 86q8 1 17 1h3q66 0 163 -16.5t97 -41.5v-194h-51q-5 81 -80 132q-70 47 -149 51h-15q-78 0 -125 -44.5t-47 -117.5q0 -132 287 -269q149 -67 204.5 -143.5t55.5 -187.5q0 -171 -101 -282q-47 -39 -99 -64
q108 -56 154 -118q55 -77 55 -187q0 -171 -101 -283q-124 -102 -277 -105v1q-6 -1 -13 -1h-3q-66 0 -163 16.5t-97 41.5v194h51q5 -81 80 -132q68 -45 145 -50z" />
    <glyph glyph-name="dieresis" unicode="&#xa8;" horiz-adv-x="1024" 
d="M223 1289l71 72q13 12 25 12q11 0 27 -14l69 -73q10 -14 10 -25q0 -13 -12 -27l-69 -75q-17 -17 -25 -17q-14 0 -25 12l-76 86q-9 12 -9 23q0 13 14 26zM588 1289l71 72q13 12 25 12q11 0 27 -13l69 -74q10 -14 10 -25q0 -13 -12 -26l-69 -76q-17 -17 -25 -17
q-14 0 -25 12l-76 87q-9 11 -9 22q0 13 14 26z" />
    <glyph glyph-name="copyright" unicode="&#xa9;" horiz-adv-x="1674" 
d="M840 1456q145 0 280 -56.5t239 -160.5q102 -101 158.5 -238t56.5 -283q0 -147 -56.5 -282t-162.5 -240q-105 -105 -239 -159.5t-283 -54.5q-146 0 -278 55.5t-238 160.5q-106 104 -161.5 237.5t-55.5 282.5q0 148 55.5 283t159.5 238q102 104 238.5 160.5t286.5 56.5z
M357 1197q-95 -96 -146 -219.5t-51 -259.5q0 -137 51 -259t148 -219q98 -96 219 -147t256 -51q137 0 259.5 50.5t219.5 145.5q97 98 149 221.5t52 258.5q0 134 -52 259.5t-145 219.5q-96 96 -220 147.5t-258 51.5q-137 0 -262 -51.5t-220 -147.5zM865 223q-142 0 -264 68
t-186 185t-64 243t65.5 244t187.5 184.5t254 66.5q38 0 75 -6.5t76 -20.5q5 -1 9 -1q19 0 26 30h42l72 -198h-44q-52 94 -131 124q-72 26 -147 26h-15q-86 -8 -166.5 -71t-121.5 -177q-33 -90 -33 -184q0 -25 2 -50q11 -121 69.5 -224t149.5 -152q72 -40 166 -42
q124 0 194 56t70 126h53v-100q0 -46 -96.5 -86.5t-242.5 -40.5z" />
    <glyph glyph-name="ordfeminine" unicode="&#xaa;" horiz-adv-x="648" 
 />
    <glyph glyph-name="guillemotleft" unicode="&#xab;" horiz-adv-x="944" 
d="M174 479l342 303h14v-37l-205 -266l205 -266v-37h-14zM487 479l342 303h14v-37l-205 -266l205 -266v-37h-14z" />
    <glyph glyph-name="logicalnot" unicode="&#xac;" horiz-adv-x="1014" 
d="M87 767h840v-491l-1 -1h-98v392h-741v100z" />
    <glyph glyph-name="registered" unicode="&#xae;" horiz-adv-x="1674" 
d="M751 1099v-374l3 -8q23 -56 56 -81q29 -22 56 -22h6q31 4 61.5 38.5t46.5 97.5q13 50 13 103q0 13 -1 27q-4 67 -28 124.5t-56.5 76t-63.5 18.5h-93zM984 576l82 -116q100 -141 150 -141h34v-50h-346v50h45q30 0 30 22q0 29 -69 114l-75 102q-42 0 -84 42v-159
q0 -121 36 -121h53v-50h-316v50h43q37 0 37 121v538q0 121 -37 121h-43v70h356q64 -1 125 -42q60 -41 92.5 -114t32.5 -152q0 -78 -32 -150.5t-114 -134.5zM840 1456q145 0 280 -56.5t239 -160.5q102 -101 158.5 -238t56.5 -283q0 -147 -56.5 -282t-162.5 -240
q-105 -105 -239 -159.5t-283 -54.5q-146 0 -278 55.5t-238 160.5q-106 104 -161.5 237.5t-55.5 282.5q0 148 55.5 283t159.5 238q102 104 238.5 160.5t286.5 56.5zM357 1197q-95 -96 -146 -219.5t-51 -259.5q0 -137 51 -259t148 -219q98 -96 219 -147t256 -51
q137 0 259.5 50.5t219.5 145.5q97 98 149 221.5t52 258.5q0 134 -52 259.5t-145 219.5q-96 96 -220 147.5t-258 51.5q-137 0 -262 -51.5t-220 -147.5z" />
    <glyph glyph-name="macron" unicode="&#xaf;" horiz-adv-x="670" 
 />
    <glyph glyph-name="degree" unicode="&#xb0;" horiz-adv-x="674" 
d="M339 1372q-86 0 -147.5 -61t-61.5 -148t61 -147t148 -60t147 60t60 147t-60.5 148t-146.5 61zM339 1442q115 0 196 -81.5t81 -196.5q0 -114 -82 -196t-197 -82q-117 0 -197 81t-80 197t81.5 197t197.5 81z" />
    <glyph glyph-name="plusminus" unicode="&#xb1;" horiz-adv-x="1014" 
 />
    <glyph glyph-name="uni00B2" unicode="&#xb2;" horiz-adv-x="1014" 
 />
    <glyph glyph-name="uni00B3" unicode="&#xb3;" horiz-adv-x="1014" 
 />
    <glyph glyph-name="acute" unicode="&#xb4;" horiz-adv-x="1024" 
d="M607 1375q35 35 55.5 47t40.5 12q33 0 53.5 -20t20.5 -51q0 -22 -15.5 -42t-46.5 -40l-330 -203h-69z" />
    <glyph glyph-name="mu" unicode="&#xb5;" horiz-adv-x="1180" 
 />
    <glyph glyph-name="paragraph" unicode="&#xb6;" horiz-adv-x="1024" 
d="M929 1435v-70h-127v-1365h-82v1365h-166v-1365h-84v738q-174 8 -275.5 102.5t-101.5 245.5q0 157 107.5 253t285.5 96h443z" />
    <glyph glyph-name="periodcentered" unicode="&#xb7;" horiz-adv-x="508" 
d="M145 740l82 84q15 14 29 14q13 0 31 -16l80 -86q12 -16 12 -29q0 -15 -14 -31l-80 -88q-20 -20 -29 -20q-16 0 -29 14l-88 101q-10 13 -10 26q0 15 16 31z" />
    <glyph glyph-name="periodcentered" unicode="&#x2219;" horiz-adv-x="508" 
d="M145 740l82 84q15 14 29 14q13 0 31 -16l80 -86q12 -16 12 -29q0 -15 -14 -31l-80 -88q-20 -20 -29 -20q-16 0 -29 14l-88 101q-10 13 -10 26q0 15 16 31z" />
    <glyph glyph-name="cedilla" unicode="&#xb8;" horiz-adv-x="1024" 
d="M360 -290q85 -52 152 -52q66 0 94.5 21.5t28.5 66.5t-49 64q-40 16 -102 16q-16 0 -34 -2l48 176h63l-37 -104q32 4 62 5q86 0 134 -40.5t48 -113.5q0 -76 -58.5 -120.5t-160.5 -44.5q-109 0 -189 32v96z" />
    <glyph glyph-name="uni00B9" unicode="&#xb9;" horiz-adv-x="1014" 
 />
    <glyph glyph-name="ordmasculine" unicode="&#xba;" horiz-adv-x="718" 
 />
    <glyph glyph-name="guillemotright" unicode="&#xbb;" horiz-adv-x="944" 
d="M115 176h-14v37l205 266l-205 266v37h14l342 -303zM428 176h-14v37l205 266l-205 266v37h14l342 -303z" />
    <glyph glyph-name="onequarter" unicode="&#xbc;" horiz-adv-x="1708" 
 />
    <glyph glyph-name="onehalf" unicode="&#xbd;" horiz-adv-x="1964" 
 />
    <glyph glyph-name="threequarters" unicode="&#xbe;" horiz-adv-x="1708" 
 />
    <glyph glyph-name="questiondown" unicode="&#xbf;" horiz-adv-x="748" 
 />
    <glyph glyph-name="Agrave" unicode="&#xc0;" horiz-adv-x="1540" 
 />
    <glyph glyph-name="Aacute" unicode="&#xc1;" horiz-adv-x="1540" 
 />
    <glyph glyph-name="Acircumflex" unicode="&#xc2;" horiz-adv-x="1540" 
 />
    <glyph glyph-name="Atilde" unicode="&#xc3;" horiz-adv-x="1540" 
 />
    <glyph glyph-name="Adieresis" unicode="&#xc4;" horiz-adv-x="1540" 
 />
    <glyph glyph-name="Aring" unicode="&#xc5;" horiz-adv-x="1540" 
 />
    <glyph glyph-name="AE" unicode="&#xc6;" horiz-adv-x="2118" 
 />
    <glyph glyph-name="Ccedilla" unicode="&#xc7;" horiz-adv-x="1399" 
 />
    <glyph glyph-name="Egrave" unicode="&#xc8;" horiz-adv-x="1151" 
 />
    <glyph glyph-name="Eacute" unicode="&#xc9;" horiz-adv-x="1151" 
 />
    <glyph glyph-name="Ecircumflex" unicode="&#xca;" horiz-adv-x="1151" 
 />
    <glyph glyph-name="Edieresis" unicode="&#xcb;" horiz-adv-x="1151" 
 />
    <glyph glyph-name="Igrave" unicode="&#xcc;" horiz-adv-x="657" 
 />
    <glyph glyph-name="Iacute" unicode="&#xcd;" horiz-adv-x="657" 
 />
    <glyph glyph-name="Icircumflex" unicode="&#xce;" horiz-adv-x="657" 
 />
    <glyph glyph-name="Idieresis" unicode="&#xcf;" horiz-adv-x="657" 
 />
    <glyph glyph-name="Eth" unicode="&#xd0;" horiz-adv-x="1518" 
 />
    <glyph glyph-name="Ntilde" unicode="&#xd1;" horiz-adv-x="1554" 
 />
    <glyph glyph-name="Ograve" unicode="&#xd2;" horiz-adv-x="1614" 
 />
    <glyph glyph-name="Oacute" unicode="&#xd3;" horiz-adv-x="1614" 
 />
    <glyph glyph-name="Ocircumflex" unicode="&#xd4;" horiz-adv-x="1614" 
 />
    <glyph glyph-name="Otilde" unicode="&#xd5;" horiz-adv-x="1614" 
 />
    <glyph glyph-name="Odieresis" unicode="&#xd6;" horiz-adv-x="1614" 
 />
    <glyph glyph-name="multiply" unicode="&#xd7;" horiz-adv-x="1014" 
d="M507 618l-247 -247l-99 99l247 247l-247 248l99 98l247 -247l248 247l98 -99l-247 -247l247 -247l-99 -99z" />
    <glyph glyph-name="Oslash" unicode="&#xd8;" horiz-adv-x="1614" 
 />
    <glyph glyph-name="Ugrave" unicode="&#xd9;" horiz-adv-x="1501" 
 />
    <glyph glyph-name="Uacute" unicode="&#xda;" horiz-adv-x="1501" 
 />
    <glyph glyph-name="Ucircumflex" unicode="&#xdb;" horiz-adv-x="1501" 
 />
    <glyph glyph-name="Udieresis" unicode="&#xdc;" horiz-adv-x="1501" 
 />
    <glyph glyph-name="Yacute" unicode="&#xdd;" horiz-adv-x="1233" 
 />
    <glyph glyph-name="Thorn" unicode="&#xde;" horiz-adv-x="1120" 
 />
    <glyph glyph-name="germandbls" unicode="&#xdf;" horiz-adv-x="1251" 
 />
    <glyph glyph-name="agrave" unicode="&#xe0;" horiz-adv-x="922" 
 />
    <glyph glyph-name="aacute" unicode="&#xe1;" horiz-adv-x="922" 
 />
    <glyph glyph-name="acircumflex" unicode="&#xe2;" horiz-adv-x="922" 
 />
    <glyph glyph-name="atilde" unicode="&#xe3;" horiz-adv-x="922" 
 />
    <glyph glyph-name="adieresis" unicode="&#xe4;" horiz-adv-x="922" 
 />
    <glyph glyph-name="aring" unicode="&#xe5;" horiz-adv-x="922" 
 />
    <glyph glyph-name="ae" unicode="&#xe6;" horiz-adv-x="1454" 
 />
    <glyph glyph-name="ccedilla" unicode="&#xe7;" horiz-adv-x="905" 
 />
    <glyph glyph-name="egrave" unicode="&#xe8;" horiz-adv-x="909" 
 />
    <glyph glyph-name="eacute" unicode="&#xe9;" horiz-adv-x="909" 
 />
    <glyph glyph-name="ecircumflex" unicode="&#xea;" horiz-adv-x="909" 
 />
    <glyph glyph-name="edieresis" unicode="&#xeb;" horiz-adv-x="909" 
 />
    <glyph glyph-name="igrave" unicode="&#xec;" horiz-adv-x="514" 
 />
    <glyph glyph-name="iacute" unicode="&#xed;" horiz-adv-x="514" 
 />
    <glyph glyph-name="icircumflex" unicode="&#xee;" horiz-adv-x="514" 
 />
    <glyph glyph-name="idieresis" unicode="&#xef;" horiz-adv-x="514" 
 />
    <glyph glyph-name="eth" unicode="&#xf0;" horiz-adv-x="1139" 
 />
    <glyph glyph-name="ntilde" unicode="&#xf1;" horiz-adv-x="1108" 
 />
    <glyph glyph-name="ograve" unicode="&#xf2;" horiz-adv-x="1010" 
 />
    <glyph glyph-name="oacute" unicode="&#xf3;" horiz-adv-x="1010" 
 />
    <glyph glyph-name="ocircumflex" unicode="&#xf4;" horiz-adv-x="1010" 
 />
    <glyph glyph-name="otilde" unicode="&#xf5;" horiz-adv-x="1010" 
 />
    <glyph glyph-name="odieresis" unicode="&#xf6;" horiz-adv-x="1010" 
 />
    <glyph glyph-name="divide" unicode="&#xf7;" horiz-adv-x="1014" 
d="M87 647v140h839l1 -1v-139h-840zM398 408l82 84q15 14 29 14q13 0 31 -16l80 -86q12 -16 12 -29q0 -15 -14 -31l-80 -88q-20 -20 -29 -20q-16 0 -29 14l-88 101q-10 13 -10 26q0 15 16 31zM398 1101l82 84q15 14 29 14q13 0 31 -16l80 -86q12 -16 12 -29q0 -15 -14 -31
l-80 -88q-20 -20 -29 -20q-16 0 -29 14l-88 101q-10 13 -10 26q0 15 16 31z" />
    <glyph glyph-name="oslash" unicode="&#xf8;" horiz-adv-x="1010" 
 />
    <glyph glyph-name="ugrave" unicode="&#xf9;" horiz-adv-x="1059" 
 />
    <glyph glyph-name="uacute" unicode="&#xfa;" horiz-adv-x="1059" 
 />
    <glyph glyph-name="ucircumflex" unicode="&#xfb;" horiz-adv-x="1059" 
 />
    <glyph glyph-name="udieresis" unicode="&#xfc;" horiz-adv-x="1059" 
 />
    <glyph glyph-name="yacute" unicode="&#xfd;" horiz-adv-x="868" 
 />
    <glyph glyph-name="thorn" unicode="&#xfe;" horiz-adv-x="1010" 
 />
    <glyph glyph-name="ydieresis" unicode="&#xff;" horiz-adv-x="868" 
 />
    <glyph glyph-name="dotlessi" unicode="&#x131;" horiz-adv-x="514" 
d="M328 223q0 -173 100 -173h46v-50h-442v50h46q100 0 100 173v432q0 77 -111 77h-48v44q222 69 261 182h48v-735z" />
    <glyph glyph-name="circumflex" unicode="&#x2c6;" horiz-adv-x="1024" 
d="M221 1079l232 355h118l232 -355h-58l-233 216l-233 -216h-58z" />
    <glyph glyph-name="caron" unicode="&#x2c7;" horiz-adv-x="1024" 
d="M221 1434h58l233 -214l233 214h58l-232 -356h-118z" />
    <glyph glyph-name="uni02C9" unicode="&#x2c9;" horiz-adv-x="1024" 
d="M254 1195v125h516v-125h-516z" />
    <glyph glyph-name="breve" unicode="&#x2d8;" horiz-adv-x="1024" 
d="M219 1349h51q17 -73 75 -107t167 -34t166 33.5t74 107.5h51q-20 -133 -94 -201.5t-197 -68.5q-122 0 -197 69t-96 201z" />
    <glyph glyph-name="dotaccent" unicode="&#x2d9;" horiz-adv-x="1024" 
d="M422 1289l69 72q6 6 13 9t14 3q6 0 12.5 -3t12.5 -9l71 -76q5 -4 7 -10t2 -14q-1 -9 -3 -15t-8 -12l-71 -76q-12 -11 -16 -13.5t-7 -2.5q-10 0 -16.5 2.5t-10.5 8.5l-75 87q-4 4 -6 9.5t-2 13.5q0 6 3 12.5t11 13.5z" />
    <glyph glyph-name="ring" unicode="&#x2da;" horiz-adv-x="1024" 
d="M411 1257q0 -42 29 -71t71 -29t71 29t29 71q0 40 -29.5 69.5t-70.5 29.5t-70.5 -29.5t-29.5 -69.5zM335 1257q0 75 51 126t125 51q76 0 127.5 -51.5t51.5 -125.5q0 -75 -51.5 -126.5t-127.5 -51.5q-74 0 -125 51.5t-51 126.5z" />
    <glyph glyph-name="ogonek" unicode="&#x2db;" horiz-adv-x="1024" 
d="M640 0q-71 -62 -110.5 -119.5t-39.5 -112.5q0 -47 27 -75t73 -28q40 0 69.5 15.5t49.5 48.5l28 -16q-36 -63 -90.5 -97t-119.5 -34q-70 0 -114 35.5t-44 90.5q0 76 60.5 156.5t161.5 135.5h49z" />
    <glyph glyph-name="tilde" unicode="&#x2dc;" horiz-adv-x="1024" 
d="M808 1382q-20 -103 -68.5 -154t-126.5 -51h-4q-50 0 -113 23q-66 24 -114 24q-39 0 -60.5 -20.5t-33.5 -71.5h-54q19 106 68 158.5t129 52.5q46 -1 113 -24q64 -23 112 -23h4q36 0 58 20t36 66h54z" />
    <glyph glyph-name="hungarumlaut" unicode="&#x2dd;" horiz-adv-x="1024" 
d="M217 1079l144 273q24 44 45.5 63t46.5 19q28 0 48 -20t20 -47q0 -16 -10.5 -35t-30.5 -41l-205 -212h-58zM502 1079l144 273q24 44 45.5 63t46.5 19q28 0 48 -20t20 -47q0 -16 -10.5 -35t-30.5 -41l-205 -212h-58z" />
    <glyph glyph-name="endash" unicode="&#x2013;" horiz-adv-x="1108" 
d="M56 419v120h996v-120h-996z" />
    <glyph glyph-name="emdash" unicode="&#x2014;" 
d="M0 419v120h2048v-120h-2048z" />
    <glyph glyph-name="quoteleft" unicode="&#x2018;" horiz-adv-x="557" 
d="M319 1016q-44 0 -88.5 65.5t-44.5 151.5q0 109 71 226.5t139 117.5v-43q-73 -43 -87 -190q0 -119 129 -161v-42z" />
    <glyph glyph-name="quoteright" unicode="&#x2019;" horiz-adv-x="557" 
d="M238 1577q44 0 88.5 -65.5t44.5 -151.5q0 -109 -71 -226.5t-139 -117.5v43q73 43 87 190q0 119 -129 161v42z" />
    <glyph glyph-name="quotesinglbase" unicode="&#x201a;" horiz-adv-x="557" 
d="M238 281q44 0 88.5 -65.5t44.5 -151.5q0 -109 -71 -226.5t-139 -117.5v43q73 43 87 190q0 119 -129 161v42z" />
    <glyph glyph-name="quotedblleft" unicode="&#x201c;" horiz-adv-x="910" 
d="M319 1016q-44 0 -88.5 65.5t-44.5 151.5q0 109 71 226.5t139 117.5v-43q-73 -43 -87 -190q0 -119 129 -161v-42zM672 1016q-44 0 -88.5 65.5t-44.5 151.5q0 109 71 226.5t139 117.5v-43q-73 -43 -87 -190q0 -119 129 -161v-42z" />
    <glyph glyph-name="quotedblright" unicode="&#x201d;" horiz-adv-x="910" 
d="M238 1577q44 0 88.5 -65.5t44.5 -151.5q0 -109 -71 -226.5t-139 -117.5v43q73 43 87 190q0 119 -129 161v42zM591 1577q44 0 88.5 -65.5t44.5 -151.5q0 -109 -71 -226.5t-139 -117.5v43q73 43 87 190q0 119 -129 161v42z" />
    <glyph glyph-name="quotedblbase" unicode="&#x201e;" horiz-adv-x="910" 
d="M238 281q44 0 88.5 -65.5t44.5 -151.5q0 -109 -71 -226.5t-139 -117.5v43q73 43 87 190q0 119 -129 161v42zM591 281q44 0 88.5 -65.5t44.5 -151.5q0 -109 -71 -226.5t-139 -117.5v43q73 43 87 190q0 119 -129 161v42z" />
    <glyph glyph-name="dagger" unicode="&#x2020;" horiz-adv-x="1014" 
d="M486 1022q-8 97 -54 178q-57 101 -57 129q0 49 36 78.5t96 29.5q57 0 94.5 -27.5t37.5 -71.5q0 -32 -55 -137q-46 -85 -55 -179q96 8 177 54q101 57 129 57q49 0 79 -36t30 -96q0 -57 -27.5 -94.5t-72.5 -37.5q-32 0 -136 55q-85 46 -179 57q8 -176 110 -277
q-106 -460 -112 -974h-38q-6 514 -114 974q102 101 111 277q-96 -10 -178 -55q-101 -57 -129 -57q-49 0 -78.5 36t-29.5 96q0 57 27.5 94.5t71.5 37.5q32 0 137 -56q85 -46 179 -55z" />
    <glyph glyph-name="daggerdbl" unicode="&#x2021;" horiz-adv-x="1014" 
d="M528 186q94 11 179 57q104 55 136 55q45 0 72.5 -37.5t27.5 -94.5q0 -60 -30 -96t-79 -36q-28 0 -129 57q-81 46 -177 54q9 -94 55 -179q55 -105 55 -137q0 -44 -37.5 -71.5t-94.5 -27.5q-60 0 -96 29.5t-36 78.5q0 28 57 129q46 81 54 178q-94 -9 -179 -55
q-105 -56 -137 -56q-44 0 -71.5 37.5t-27.5 94.5q0 60 29.5 96t78.5 36q28 0 129 -57q82 -45 178 -55q-9 226 -111 398q102 171 111 397q-96 -10 -178 -55q-101 -57 -129 -57q-49 0 -78.5 36t-29.5 96q0 57 27.5 94.5t71.5 37.5q32 0 137 -56q85 -46 179 -55q-8 97 -54 178
q-57 101 -57 129q0 49 36 78.5t96 29.5q57 0 94.5 -27.5t37.5 -71.5q0 -32 -55 -137q-46 -85 -55 -179q96 8 177 54q101 57 129 57q49 0 79 -36t30 -96q0 -57 -27.5 -94.5t-72.5 -37.5q-32 0 -136 55q-85 46 -179 57q8 -226 110 -397q-102 -172 -110 -398z" />
    <glyph glyph-name="bullet" unicode="&#x2022;" horiz-adv-x="1024" 
d="M216 718q0 123 87 209t210 86q122 0 208.5 -86.5t86.5 -208.5t-87.5 -209.5t-209.5 -87.5q-123 0 -209 87t-86 210z" />
    <glyph glyph-name="ellipsis" unicode="&#x2026;" 
d="M145 167l82 84q15 14 29 14q13 0 31 -16l80 -86q12 -16 12 -29q0 -15 -14 -31l-80 -88q-20 -20 -29 -20q-16 0 -29 14l-88 101q-10 13 -10 26q0 15 16 31zM828 167l82 84q15 14 29 14q13 0 31 -16l80 -86q12 -16 12 -29q0 -15 -14 -31l-80 -88q-20 -20 -29 -20
q-16 0 -29 14l-88 101q-10 13 -10 26q0 15 16 31zM1511 167l82 84q15 14 29 14q13 0 31 -16l80 -86q12 -16 12 -29q0 -15 -14 -31l-80 -88q-20 -20 -29 -20q-16 0 -29 14l-88 101q-10 13 -10 26q0 15 16 31z" />
    <glyph glyph-name="guilsinglleft" unicode="&#x2039;" horiz-adv-x="631" 
d="M174 479l342 303h14v-37l-205 -266l205 -266v-37h-14z" />
    <glyph glyph-name="guilsinglright" unicode="&#x203a;" horiz-adv-x="631" 
d="M115 176h-14v37l205 266l-205 266v37h14l342 -303z" />
    <glyph glyph-name="fraction" unicode="&#x2044;" horiz-adv-x="342" 
d="M-342 -29l940 1461h84l-938 -1461h-86z" />
    <glyph glyph-name="fraction" unicode="&#x2215;" horiz-adv-x="342" 
d="M-342 -29l940 1461h84l-938 -1461h-86z" />
    <glyph glyph-name="franc" unicode="&#x20a3;" horiz-adv-x="1014" 
d="M247 357h-194v60h194v732q0 235 -103 235h-96v50h915l103 -231h-49q-59 182 -190 182l-316 -1q-102 0 -102 -235v-352h361q100 0 100 63v58h50v-342h-50v60q0 62 -100 62h-361v-281h194v-60h-194v-72q0 -235 102 -235h97v-50h-560v50h96q103 0 103 235v72z" />
    <glyph glyph-name="lira" unicode="&#x20a4;" horiz-adv-x="1014" 
d="M748 1347q-72 31 -160 31h-2q-100 0 -190 -101q-84 -93 -84 -241q0 -15 1 -30q0 -106 33 -213h380v-60h-360q12 -30 26 -60h352v-60h-321q35 -63 35 -138q0 -161 -162 -375h402q130 0 189 132l49 -1l-103 -231h-719l1 50q187 238 187 418q0 77 -34 143l-2 2h-172v60h143
q-14 31 -26 60h-135v60h113q-36 107 -36 193q0 226 123.5 347t310.5 121q75 0 185.5 -14t110.5 -34v-161h-58q-5 61 -77 102z" />
    <glyph glyph-name="peseta" unicode="&#x20a7;" horiz-adv-x="2028" 
d="M409 1384v-662q3 -9 7 -17q41 -102 108 -153q57 -44 116 -44q10 0 19 1q68 8 127 75t87 177q22 87 22 179q0 24 -1 47q-7 116 -49.5 218.5t-108.5 144.5q-56 35 -112 35q-10 0 -21 -1h-194zM1496 908h-179v-685q0 -81 34 -119q28 -31 81 -37l-71 192l49 1
q55 -130 114 -174q57 -44 127 -44h7q92 0 151 52q59 53 59 136q0 102 -259 226q-101 52 -144 112t-43 145q0 121 73 194zM1039 910q-7 -101 -48 -194q-50 -114 -141 -177.5t-190 -63.5q-100 0 -191 64q-33 22 -60 51v-305q0 -235 102 -235h97v-50h-560v50h96q103 0 103 235
v864q0 235 -103 235h-96v50h618q92 -2 181 -62q91 -62 143 -177q50 -113 51 -237h10q216 0 216 355h50v-355h259q42 19 110 20h2q54 0 133.5 -13.5t79.5 -33.5v-159h-42q-4 66 -65.5 108t-133.5 42q-64 0 -102.5 -36.5t-38.5 -96.5q0 -108 235 -220q122 -55 167.5 -117.5
t45.5 -153.5q0 -140 -83 -231q-102 -84 -228 -86q-58 0 -105 11q-28 6 -56 6q-18 0 -36 -3q-28 -5 -59 -5q-124 0 -173.5 57t-57.5 176h-1v687h-129z" />
    <glyph glyph-name="Euro" unicode="&#x20ac;" horiz-adv-x="1014" 
d="M140 372q-62 135 -76 281h-108l17 60h87v29q0 16 1 31h-71l17 60h58q14 145 76 281q81 178 226 274t298 96q43 0 87 -8q40 -10 82 -29q8 -6 16 -6q20 0 34 45h41l84 -281l-40 -1q-49 134 -138 178q-43 22 -81 32v3q-50 16 -101 16q-17 0 -34 -2q-120 -12 -226 -113.5
t-157 -273.5q-32 -104 -39 -211h706l-17 -60h-692q0 -30 2 -60h674l-17 -60h-652q17 -158 83 -298q74 -157 193 -236q102 -68 216 -69q186 3 256 91q74 91 74 185h48v-143q0 -70 -111 -127q-105 -54 -267 -56q-181 0 -325.5 98t-223.5 274z" />
    <glyph glyph-name="afii61352" unicode="&#x2116;" horiz-adv-x="2271" 
 />
    <glyph glyph-name="trademark" unicode="&#x2122;" horiz-adv-x="1497" 
 />
    <glyph glyph-name="partialdiff" unicode="&#x2202;" horiz-adv-x="1014" 
d="M232 537q0 -41 5 -79q14 -122 61.5 -230t118.5 -165q64 -53 128 -53q6 0 13 1q70 5 127.5 70.5t80.5 179.5q16 73 16 149q0 42 -5 85q-14 122 -62.5 231.5t-119.5 165.5q-65 50 -128 50h-11q-68 -5 -126 -69.5t-82 -178.5q-16 -84 -16 -157zM937 477q0 -132 -56.5 -251
t-159 -185t-214.5 -66t-214.5 66t-159 185t-56.5 251q0 131 58 251t161 185t211 65q109 0 212 -65q29 -18 54 -41q-84 235 -233.5 377t-326.5 155v55q306 0 515 -285t209 -697z" />
    <glyph glyph-name="Delta" unicode="&#x2206;" horiz-adv-x="1081" 
d="M514 1195l-406 -1072h801zM547 1434l526 -1434h-1067z" />
    <glyph glyph-name="product" unicode="&#x220f;" horiz-adv-x="1515" 
d="M511 1384q-102 0 -102 -235v-1281q0 -235 102 -235h97v-51h-560v51h96q103 0 103 235v1281q0 235 -103 235h-96v50h1419v-50h-97q-102 0 -102 -235v-1281q0 -235 102 -235h97v-50h-560v50h96q103 0 103 235v1281q0 235 -103 235h-492z" />
    <glyph glyph-name="summation" unicode="&#x2211;" horiz-adv-x="1206" 
d="M1059 548l-788 -914h635q130 0 189 182h49l-103 -232h-921v50q62 0 106 53l663 781l-663 859q-44 57 -106 57v50h921l103 -232h-49q-59 182 -189 182h-485z" />
    <glyph glyph-name="minus" unicode="&#x2212;" horiz-adv-x="1014" 
d="M87 647v140h839l1 -1v-139h-840z" />
    <glyph glyph-name="radical" unicode="&#x221a;" horiz-adv-x="1014" 
d="M181 0l-164 359l74 35l85 -185l728 1470h150v-60h-72z" />
    <glyph glyph-name="infinity" unicode="&#x221e;" horiz-adv-x="1014" 
d="M439 755q-15 103 -74 133q-46 22 -84 22q-12 0 -23 -2q-49 -10 -92.5 -44.5t-65.5 -84.5q-20 -46 -20 -90v-8q2 -48 27.5 -89t71.5 -58q29 -11 61 -11q16 0 33 3q47 10 90.5 43.5t75.5 185.5zM466 687q12 -96 94 -153q69 -48 123 -48q11 0 21 2q62 12 117.5 52t84.5 101
q26 54 26 108v11q-2 60 -35.5 108.5t-91.5 68.5q-37 13 -76 13q-22 0 -44 -4q-67 -9 -127 -62t-92 -197zM450 827q9 35 21 69q34 88 95 137t128 49t128 -48t95 -135t34 -182t-34 -182t-95 -135t-128 -48t-128 49t-95 136q-12 35 -21 70q-5 -21 -12 -41q-27 -73 -74 -113
t-99 -40t-100 41t-73.5 113.5t-25.5 149.5q0 76 25.5 149t73.5 114t100 41t99 -40t74 -112q7 -21 12 -42z" />
    <glyph glyph-name="integral" unicode="&#x222b;" horiz-adv-x="665" 
d="M-12 -281q-60 0 -60 29v159h36q1 -43 34.5 -64.5t63.5 -21.5h1q82 0 115 162q32 162 40 316l70 734l8 62q27 238 135 429.5t234 191.5q60 0 60 -29v-159h-36q-1 43 -35 64.5t-63 21.5q-71 0 -116 -155.5t-49 -363.5l-73 -767q-20 -231 -130.5 -420t-234.5 -189z" />
    <glyph glyph-name="approxequal" unicode="&#x2248;" horiz-adv-x="1014" 
d="M923 1053v-156q-63 -72 -122 -97.5t-116 -25.5q-60 0 -177.5 48.5t-176.5 48.5q-51 0 -107.5 -28t-129.5 -112v156q64 73 123 99t114 26q64 0 181.5 -49.5t172.5 -49.5q52 0 108.5 28t129.5 112zM923 705v-156q-63 -72 -122 -97.5t-116 -25.5q-60 0 -177.5 48.5
t-176.5 48.5q-51 0 -107.5 -28t-129.5 -112v156q64 73 123 99t114 26q64 0 181.5 -49.5t172.5 -49.5q52 0 108.5 28t129.5 112z" />
    <glyph glyph-name="lessequal" unicode="&#x2264;" horiz-adv-x="1014" 
d="M927 1074l-625 -359l625 -355v-167l-840 481v83l840 484v-167zM87 1v140h839l1 -1v-139h-840z" />
    <glyph glyph-name="greaterequal" unicode="&#x2265;" horiz-adv-x="1014" 
d="M87 1241l840 -484v-83l-840 -481v167l625 355l-625 359v167zM87 2v140h839l1 -1v-139h-840z" />
    <glyph glyph-name="uni4E00" unicode="&#x4e00;" 
d="M514 721v16q0 13 12 15q97 12 192 15t189 7q13 0 62 8q49 4 106 9.5t107 13.5q49 4 61 4h70q16 0 49 -2l74 -12q41 -11 69 -25q29 -18 29 -39q0 -45 -39 -45q-66 0 -138.5 16.5t-135.5 18.5q-9 0 -34.5 -3t-58.5 -3l-55 -4q-24 -2 -33 -2h-10q-20 -2 -78.5 -7.5
t-123 -10.5t-122 -10t-77.5 -7q-6 -2 -19 -4q-12 -6 -16 -6h-6q-41 0 -57.5 10t-16.5 47z" />
    <glyph glyph-name="uni4E8E" unicode="&#x4e8e;" 
d="M819 205l10 -27q10 -22 22.5 -44.5t27 -38t34 -15.5t43.5 24q25 21 31 31q61 96 91 189.5t38 189.5q12 96 12 197v207q-63 0 -129 -13l-131 -24q-66 -15 -133 -27q-64 -12 -129 -12q-21 0 -50.5 8t-29.5 37q0 22 23 33q118 26 231 34q113 4 229 35q2 0 17.5 3t31.5 9
q17 3 31.5 6t19.5 3t13 6q6 2 10 4v43q2 31 2 41q0 49 -7 93t-7 91q0 17 4 33q8 14 29 14q16 0 25.5 -11t16.5 -25.5t11 -31t4 -24.5q2 -12 2 -39l6 -61q2 -31 3 -59.5t1 -41.5h11q34 0 63 9q33 4 66 4h43q26 -2 50.5 -8.5t44 -19.5t25.5 -38q0 -6 -6 -12q-2 -10 -6 -10
h-123q-18 0 -43.5 -3t-51.5 -4.5t-46 -3.5l-16 -2l-11 -12v-133q0 -23 -4 -66q-4 -47 -7 -97t-9 -93q-2 -43 -2 -59q-4 -43 -23.5 -124t-54.5 -160t-84 -138.5t-113 -59.5q-37 0 -61 21q-25 16 -40 43.5t-22.5 61.5t-7.5 67h25zM772 1382q0 13 4 19t20 12q107 12 217 31
q111 14 213 14q19 0 42.5 -7t45 -19.5t35.5 -28.5q19 -17 19 -33q0 -12 -1 -18t-12 -17h-18q-8 -2 -14 -2h-29q-14 0 -27 13q-12 2 -39.5 3t-56.5 3l-57 6h-53q-11 -4 -25 -6l-25 -4q-10 -2 -12 -2t-12 1t-10 -1q-29 -7 -46.5 -14t-28.5 -14t-22.5 -13.5t-25.5 -6.5
q-35 0 -58.5 25t-23.5 59z" />
    <glyph glyph-name="uni4EEC" unicode="&#x4eec;" 
d="M427 162q0 123 6 244.5t6 244.5v158l-77 -78h-58q-2 4 -4 12q-2 5 -4 13q-4 4 -4 8v10q4 6 7 13.5t5 9.5l406 553l16 14q12 10 17 8q26 -6 31 -19.5t5 -31.5v-12q0 -11 -2 -17l-18 -26q-12 -23 -25.5 -47.5t-27.5 -42.5q-13 -23 -17 -31q-6 -4 -24.5 -27.5t-40.5 -48.5
q-19 -27 -39 -49l-23 -31q-16 -22 -17 -48t-3 -54q0 -13 -4 -53q0 -41 -2 -91q-2 -53 -4 -94q-2 -45 -2 -53q0 -23 2 -67t3 -99t0 -114.5t-8.5 -107.5t-21.5 -77q-12 -33 -37 -33q-4 0 -12 2h-17q-12 13 -12 31v31zM1402 215q27 0 51.5 -6t50.5 -6q45 0 74 28q33 27 52.5 69
t25.5 89q10 47 10 84v393q0 33 -12 93.5t-35.5 120t-60.5 103.5t-88 44q-29 0 -43 -2q-17 -6 -29 -13q-8 -8 -18.5 -19t-26.5 -24l-12 -6l-11 -6q-37 17 -37 45q0 33 19.5 53.5t49.5 31.5t60 16q35 2 60 2q76 0 128 -51.5t81 -123.5q33 -73 47 -151q14 -82 16 -135v-25
q4 -22 4 -51v-106q0 -60 -4 -148q0 -90 -19.5 -175t-65.5 -145.5t-138 -60.5q-16 0 -38.5 4t-45.5 13q-18 10 -33 28q-12 15 -12 37zM755 403q2 29 8 103t13.5 156.5t13.5 156.5t10 103q24 34 63 34q13 0 20 -10t7 -22q0 -95 -10 -185l-19 -178q-10 -88 -18 -178
q-4 -88 2 -180q-12 -25 -33.5 -25t-34 21.5t-18.5 54.5q-4 29 -4 61v88zM1035 1057q0 20 19.5 32.5t37 12.5t49.5 -3t32 -24q0 -35 -36 -44t-63 -9q-14 0 -26.5 9t-12.5 26z" />
    <glyph glyph-name="uni4EF7" unicode="&#x4ef7;" 
d="M1349 96q0 170 18.5 343t41.5 343q10 11 11 26t2 30.5t9 24.5t29 9q12 0 22.5 -3t14.5 -21v-29q4 -24 4 -33q0 -77 -17 -161q-12 -84 -18 -158q-2 -2 -1 -12.5t1 -12.5q0 -6 -2 -41l-10 -149v-45q0 -14 2 -45t-1 -60.5t-15.5 -52t-43.5 -22.5q-24 0 -35.5 24.5
t-11.5 44.5zM497 197q17 168 32 327.5t34 323.5v12h-8l-205 -225l-78 -10v10q4 6 11 23.5t9 23.5l386 481l147 148h4q2 0 4 2h6q29 0 29 -29q0 -12 -1 -27.5t-11 -25.5l-258 -303q-2 -4 -2 -6v-4q0 -25 24 -35v-95q2 -28 2 -55v-84q0 -33 -2 -61v-76q0 -6 -2 -25
q0 -22 -2 -45l-6 -41v-24q-2 -21 -3 -57.5t-9 -73.5q-4 -39 -19 -66q-12 -30 -43 -30q-39 0 -39 40v7zM890 342l78 293q9 4 19 17.5t18 29.5l25 25q12 8 24.5 8t15.5 -13.5t3 -18.5t-2 -7v-6l-19 -54q-10 -38 -22 -79q-13 -45 -25 -84q-8 -39 -14 -54q-4 -18 -4 -41.5
t-8 -44.5q-5 -22 -17 -37.5t-39.5 -15.5t-30 20.5t-2.5 41.5v20zM755 670l23 43l483 710q12 17 17.5 20t21.5 3q12 0 21 -2q10 -6 10 -21q0 -22 -10 -39q-11 -20 -22 -39.5t-19 -35.5q-9 -21 -9 -43q0 -19 13 -25l133 -39q67 -22 132.5 -50t125.5 -65q59 -40 104 -92v-22
q0 -19 -7 -32t-26.5 -13t-24.5 16.5t-19 28.5q-21 10 -70 32.5t-105.5 48t-105.5 48t-68 28.5q-28 13 -62 24t-69 11q-24 0 -43.5 -22.5t-37 -51t-32 -59.5t-26.5 -49q-10 -12 -33 -41q-22 -33 -47 -63q-24 -35 -45.5 -66t-32.5 -43q-8 -43 -43 -74q-30 -34 -57 -61h-25
q-12 0 -30 4q-15 6 -15 25v6z" />
    <glyph glyph-name="uni5173" unicode="&#x5173;" 
d="M623 33v6q2 4 2 6l225 571l55 205v33q-41 0 -77.5 -9t-71.5 -20.5t-72 -19.5q-35 -12 -72 -19q-16 -2 -30 19q-13 16 -13 31v18q0 6 13 12q12 2 43 13q34 8 72 19t72 21.5t48 12.5q4 2 24.5 3t41.5 7q24 2 44.5 7t24.5 18q2 6 8.5 26.5t13.5 41t13 40.5l10 27q0 2 -4 4v6
q-129 0 -254 -33q-41 -10 -74.5 -22.5t-76.5 -12.5q-19 0 -49 19q-27 14 -27 39q0 18 12 35q228 41 453 65q229 23 459 23q37 12 67 12q19 0 27 -17.5t8 -33.5q0 -25 -29.5 -36t-66.5 -14t-72 1h-47q-10 0 -35.5 -3.5t-54.5 -3.5l-57 -4q-25 -2 -35 -2q8 -12 -2 -28
q-6 -15 -19 -17q-4 0 -17 5.5t-16 5.5q-12 0 -19 -15.5t-9 -32.5q-4 -20 -4 -36v-25q98 0 195.5 10t197.5 10h18q13 0 26 -3t24 -7q10 -8 10 -20v-4q-4 -6 -11.5 -22.5t-11.5 -22.5q-121 0 -243.5 -9.5t-241.5 -38.5q-19 -26 -26 -58t-12 -64.5t-12 -65.5t-28 -57
q-8 -25 -29.5 -87.5t-48.5 -129.5q-24 -72 -46.5 -134.5t-33.5 -87.5q-2 -8 -10 -22q-6 -18 -16.5 -34.5t-20.5 -33.5q-6 -16 -8 -24v-27q2 -6 12 -16q-16 -25 -28.5 -36t-33 -11t-37.5 13t-17 34zM1245 307q0 19 15 21h24q23 0 53 -11q35 -12 67 -31.5t54.5 -45t22.5 -56.5
q0 -18 -7.5 -23t-27.5 -5q-25 0 -58.5 13t-66.5 35.5t-54.5 49.5t-21.5 53zM760 1384q0 19 12 37q12 15 29.5 26t39 16t36.5 5v-45q0 -24 -9 -47q-4 -22 -17 -36.5t-42 -14.5q-49 0 -49 59zM1243 1434q0 51 49 51q27 0 46.5 -19.5t19.5 -47t-13.5 -49t-46.5 -21.5
q-28 0 -41.5 30.5t-13.5 55.5z" />
    <glyph glyph-name="uni522B" unicode="&#x522b;" 
d="M1341 -31q0 15 8 29q86 98 139 207q51 104 77.5 218t36 233.5t9.5 248.5v219q0 6 -6 25q-2 16 -6.5 35.5t-7.5 37t-3 25.5l-8 21q0 6 -2 8t-2 4v12q0 29 19.5 43.5t45 14.5t45 -33t25.5 -57v-189q0 -135 -3 -273.5t-24.5 -274.5t-69.5 -264t-138 -239
q-21 -22 -43.5 -45.5t-53.5 -23.5q-10 0 -24 3t-14 15zM607 190q0 39 47 56q11 10 38.5 39.5t58.5 60.5l55 62q27 28 38 40.5t17 21.5t6 22.5t-11 18.5t-25 7h-25q-12 -2 -16 -2q-35 0 -60.5 -2t-52.5 -20q-6 -7 -21 -21q-12 -18 -26 -35l-27 -32q-12 -17 -18 -25
q-10 -14 -18.5 -33.5t-19.5 -38t-25.5 -31t-36 -12.5t-40 14.5t-18.5 39t23.5 47t33.5 47.5q-26 4 -53.5 15t-27.5 40q0 16 3 29.5t21 17.5l148 45q22 6 32 27q13 16 18 39.5t5 48.5v43q-27 0 -54.5 -6t-56.5 -6q-73 0 -111 43t-55 104q-14 57 -16 127v209q8 90 24.5 138
t50.5 71.5t86 31t131 19.5t154 43q80 27 159 27t132 -31q58 -31 94.5 -80t53.5 -113q16 -67 16 -133v-61q-2 -6 -5 -13.5t-7 -9.5q-6 -10 -21 -24l-30 -29q-15 -16 -27 -25q-10 -12 -12 -12l-404 -227q-12 -6 -12 -14q0 -15 6 -27t6 -25q0 -22 -6 -42.5t-6 -41.5v-8h27
q22 -2 46.5 -3t46 -3t27.5 -2q33 -6 72 -27.5t39 -64.5q0 -27 -18.5 -59.5t-36.5 -53.5q-11 -12 -34.5 -35.5l-48 -48t-46.5 -43.5l-29 -31q-8 -6 -22.5 -17t-27.5 -22.5t-24.5 -18.5t-13.5 -7h-57q-2 0 -9 10q-4 6 -4 12zM1193 678q0 18 2 41q4 18 13.5 35.5t22.5 30
t36 12.5q37 0 44 -22.5t7 -55.5v-12q0 -5 -6 -13q-2 -12 -6 -24q-2 -17 -8 -29q-3 -12 -4 -14t4 -19q8 -20 8 -24v-19q0 -12 -6 -18q-2 -8 -17 -8q-22 0 -37.5 16t-28 37.5t-20.5 46.5q-4 23 -4 39zM427 1116q0 -33 -2 -74q0 -45 2 -86q6 -45 18.5 -83.5t38.5 -63.5
q5 -2 27 -2h62q22 0 24 2q12 2 38 11t56 22q29 8 53.5 18t32.5 14l336 205q25 13 30 29t5 35q0 88 -29 166q-30 73 -116 106h-74q-60 0 -113 -6q-51 -10 -103 -24.5t-104.5 -33t-111.5 -36.5q-45 -29 -57.5 -89.5t-12.5 -109.5z" />
    <glyph glyph-name="uni52A1" unicode="&#x52a1;" 
d="M1092 25v43q0 14 3 25t7 11h24q2 -18 8.5 -42.5t24.5 -36.5q35 34 76 81.5t77 99.5t59.5 108.5t23.5 113.5q0 23 -14.5 34t-35 15t-45.5 8h-36q-43 0 -82 -6l-90 -16q-7 -2 -18 -10.5t-15 -14.5t-17 -24q-8 -23 -24 -47q-12 -25 -25 -48l-14 -26q-14 -25 -37 -66
q-18 -43 -47 -82q-25 -41 -51.5 -70.5t-51 -29.5t-34.5 6q-6 6 -13 41q-2 14 9.5 33.5t29 39t33.5 38.5q21 16 28 24.5t21.5 36t28.5 58.5q18 30 32.5 57t20.5 37q2 4 5 16t3 19h-4q-39 0 -74.5 -12.5t-74.5 -12.5q-27 0 -49.5 1t-22.5 36q0 31 37 39t84 10l90 4q45 2 59 23
l70 100q2 6 14.5 9t16.5 3q26 0 33 -4q4 -8 4 -27.5t-5.5 -34t-5.5 -34.5h222q55 0 89 -45t34 -94q0 -56 -31 -120.5t-75 -130t-95 -121.5t-90 -93q-4 -2 -16.5 -11.5t-16.5 -11.5h-8q-17 0 -27 11.5t-14 26.5t-8 34v29zM555 516q0 8 2 19.5t10 15.5l101 57q2 2 41 33l96 74
q53 43 108 90q54 43 88 69q9 7 30.5 28.5t27.5 29.5q-43 16 -70.5 25.5t-52.5 16.5t-55 15q-27 6 -68 21q-6 4 -13 11t-9.5 10t-11.5 23.5t-11 22.5q-12 10 -29.5 10t-17.5 29v10q0 4 2 7q98 90 169 179t122 212q8 18 14 22q10 2 25 2q24 0 32 -16q7 -21 7 -38t-1 -31.5
t-12 -26.5l-245 -316q-9 -12 23 -31.5t79 -35.5q49 -21 98 -33t76 -12q2 0 12 2h15q14 12 37.5 32.5t44 45t37 49t16.5 45.5q0 16 -16.5 24t-36.5 13l-46 6h-34q-41 0 -81 -9.5t-81 -9.5q0 23 12 43q15 17 34 29t42 20q25 5 45 5h27q20 -3 22 -3t14 -2q13 -6 25 -9t25 -5
q12 -6 14 -6q18 -4 43 -4t45 -2q25 -6 42 -18.5t17 -39.5q0 -36 -24.5 -68t-55 -59.5t-55 -52t-24.5 -45.5q0 -10 2 -12q12 -6 49 -18.5t49 -17.5t41 -12t55 -20q31 -12 52.5 -27.5t21.5 -34t-15.5 -23.5t-27.5 -5q-29 0 -53 15q-21 14 -49 8l-191 55h-10l-25 -18
q-24 -21 -59 -46.5t-72 -56.5q-32 -28 -57 -45l-7 -7t-3 -5l-293 -225q-17 -13 -45 -13q-33 0 -33 35z" />
    <glyph glyph-name="uni5BB6" unicode="&#x5bb6;" 
d="M669 39q10 20 56 36.5t99.5 42t94.5 66.5q45 39 45 107q0 18 -2 35q0 12 -11 28q-8 -2 -33.5 -2t-35.5 2q-2 0 -12 4q-7 7 -9 7l-10 -11q-43 -61 -84 -118.5t-98 -106.5h-14q-21 0 -26 8t-5 29q0 31 22.5 54.5t46.5 43.5l146 225v23q-8 2 -19 4q-6 2 -13 2t-13 4h-2
q-2 0 -4 2q-29 0 -56 -39l-53 -86q-27 -47 -59 -86q-29 -41 -66 -41q-20 0 -25.5 8.5t-5.5 26.5q0 25 11.5 46.5t29 40t33 34.5t27.5 39h-4q-25 0 -42.5 -17.5t-41.5 -17.5q-37 0 -37 35q0 31 33.5 59.5t76.5 59.5q48 26 93 56t69 60h-16q-29 0 -57 -4q-27 -8 -56 -8h-39
q-12 6 -12 17v14q0 12 2 23.5t23 15.5l346 78h12q18 0 31 -4q16 -5 16 -27v-23q0 -4 -11 -13t-35 -26.5t-50.5 -37t-51 -37t-34.5 -23.5l-23 -35l13 -12q2 0 16 -8q18 -6 33.5 -13.5t32.5 -13.5l18 -10q25 -14 25 -23.5t20 -9.5h12q15 17 38.5 43.5t49.5 55.5
q29 24 59.5 42.5t59.5 18.5q17 0 29 -4t12 -25q0 -26 -10 -26t-25 -15q-6 -4 -21.5 -19t-30.5 -30.5t-32 -32.5l-18 -18q27 -6 86 -15.5t117.5 -26.5t102.5 -44t44 -68q0 -16 -24 -16q-15 0 -25 4q-6 6 -18 19l-293 55l-35 47q-25 -18 -35 -47q21 -39 23 -63.5t2 -61.5
q0 -59 -27 -110.5t-71 -89.5t-100 -60.5t-114 -22.5q-8 0 -22 2h-15zM659 494q-4 0 -4 -5q0 -8 5 -8t5 8q0 5 -6 5zM681 506q-4 0 -4 -4q0 -8 4 -8t4 8q0 4 -4 4zM376 928q0 33 34 55.5t58 34.5q217 110 430 161.5t459 51.5q29 0 82 4q53 0 104.5 -10.5t87.5 -32.5
q41 -25 41 -74q0 -43 -27.5 -73.5t-66.5 -52t-86 -27.5q-45 -11 -78 -11v29l27 18q18 9 39.5 21t41 23.5t28 17.5t19.5 21.5t11 28.5t-10 17l-33 13l-35 10h-26q-19 0 -41 2h-68q-209 0 -402.5 -40t-383.5 -132q-6 0 -15 -6q-8 -10 -8 -16q-2 -3 2 -9q9 -10 9 -12v-8
q0 -21 -17.5 -30t-40 -14t-47.5 -6t-39 -1q-49 0 -49 47zM827 1407q0 31 35.5 41t62 10t26.5 -24q0 -33 -28.5 -56.5t-57.5 -23.5q-20 0 -28 18q-10 14 -10 35z" />
    <glyph glyph-name="uni6211" unicode="&#x6211;" 
d="M1261 412q-4 12 -22 12q-25 0 -45.5 -12.5t-44.5 -12.5q-21 0 -39 15.5t-18 36.5q0 12 20 22q23 6 48.5 15.5t48 21.5t22.5 33q-4 0 -4 4v8q0 6 -3 21.5t-10 35.5q-2 21 -5 36.5t-3 21.5q0 14 -4 49l-4 74q0 38 -2 73v49h-35q-61 0 -119 -10q-53 -10 -116 -24
q-13 -7 -21 -31q-4 -25 -10 -53q-2 -29 -2 -58v-41q26 0 46.5 4.5t20.5 -28.5v-17q-32 -16 -59 -32q-25 -21 -31 -58l-8 -53l-16 -86q-6 -45 -15 -84q-4 -41 -7 -54.5t-15 -13.5h-16q-21 0 -34.5 3.5t-13.5 27.5q0 51 13 105q12 49 12 100v43l-127 -43q-63 -25 -109 -80
q-10 6 -39.5 18.5t-37.5 16.5q-13 8 -13 18v2l2 2q2 5 9.5 13t13.5 10l324 145l2 17q6 16 9 39.5t6 48t5 39.5q0 8 -3 32.5t-3 32.5q-57 0 -106.5 1t-94.5 -5t-90 -24.5t-96 -57.5q-15 8 -25 18.5t-10 24.5q0 31 35 56q35 20 78 39q45 14 86 24q45 6 61 6q8 0 31 4
q20 0 45 2q29 0 50.5 2t29.5 2q12 9 16 25q8 18 9 37.5t-1 37t-2 23.5q4 13 17 13q24 0 37 -19q14 -22 20 -48t8 -46q6 -23 12 -23q62 0 140 21q78 16 137 25v83q0 70 -12 138q-13 63 -13 133q0 16 15 24q14 4 26 4q21 0 28 -10t9 -37l35 -288l145 -35q7 -2 10 -19.5
t3 -27.5q0 -17 -13 -21q-20 -2 -63 -5t-70 -19q-2 0 -7 -3t-5 -6v-225q2 -69 35 -135h10q33 0 62.5 23.5t66.5 23.5q14 0 27 -6q12 -10 12 -29q0 -24 -19.5 -37.5t-45 -24.5t-52.5 -20q-24 -12 -39 -30q7 -41 26 -95.5t50 -103.5t74 -82t96 -33q17 0 28 7.5t28.5 7.5
t19.5 -11.5t2 -25.5q0 -27 -25 -39q-24 -17 -47 -17q-71 0 -122.5 34t-90.5 85t-69 113q-27 59 -50 117zM588 1210q0 15 35 25q34 6 79 12l88 4h64q4 0 16.5 -2t24.5 -8t22.5 -14t10.5 -15q0 -26 -26 -37.5t-60 -13.5q-35 -6 -69 -3t-50 3h-31q-22 0 -45.5 3t-41 13.5
t-17.5 32.5zM1507 1339q-4 27 23.5 48.5t49 21.5t40.5 -20q22 -23 22 -43q0 -31 -21.5 -52.5t-51.5 -21.5q-25 0 -40.5 24.5t-21.5 42.5z" />
    <glyph glyph-name="uni63A8" unicode="&#x63a8;" 
d="M895 109q0 182 18.5 361t18.5 361v39q0 29 -3 62v100q-4 -2 -16 -10l-18 -12h-4q-17 0 -25 16q-4 12 -4 25q0 32 24 51l236 301q0 4 4 4h10q21 0 25 -8q8 -10 8 -33q0 -4 -4 -8v-10l-143 -203l-13 -55q9 -240 -8 -469q-14 -234 -26 -476v-20q0 -14 -1 -27.5t-10 -21.5
q-4 -8 -16 -8q-16 0 -34.5 13t-18.5 28zM1018 279q0 24 18 47.5t43 23.5q20 0 31.5 -12t27.5 -12h7q8 2 32 12q29 8 56.5 19.5t53 20.5t36.5 13l20 10q4 2 3 6.5t-5 12.5t-4 29q-39 0 -76 -6.5t-76 -6.5q-12 0 -26 4t-14 25q0 14 16 21.5t39 13.5l43 4h24q9 2 21 8
q16 2 29.5 7t27.5 7v111q-41 0 -83 -10.5t-85 -10.5q-12 0 -24 13q-8 10 -8 22q0 19 12 23l26 10q23 4 43 12q25 6 46 15q22 4 28 8q35 8 47 16q15 4 19 14.5t2 28t-2 51.5q-62 0 -119 -22.5t-121 -22.5q-10 0 -24.5 1t-14.5 16q0 30 35 43q12 2 43 12q35 10 72 23
q39 8 72.5 17t48.5 13q14 -4 41.5 3.5t56.5 19.5l59 24q29 11 51 11q15 0 27 -7.5t12 -27.5q0 -37 -24.5 -47.5t-54 -11.5t-54 -2t-24.5 -17v-102h80q4 -2 10 -7l6 -8q2 -4 6 -6v-6q0 -27 -17.5 -35t-40 -11t-40 -4t-17.5 -13v-111h146q20 0 22 -7t2 -20v-18q0 -8 -12 -12
l-145 -25q-13 0 -14 -7t1 -24q6 -18 6 -22h287l13 -13q-7 -8 -23 -20q-12 -12 -25 -14l-245 -31l-45 -47q-43 6 -82 2q-39 -8 -78 -17q-37 -12 -78 -22q-37 -10 -78 -10q-4 0 -22 2h-23q-24 12 -24 33zM366 365q0 26 23 38q10 -8 14 -16q8 -10 13.5 -19.5t11.5 -13.5
q10 -8 28 -8q54 0 86 31q33 26 52 72q16 40 21 88.5t5 89.5q-20 0 -38.5 -5.5t-39.5 -5.5h-24q-17 0 -30 3.5t-22.5 10.5t-9.5 21q0 19 13 23q39 4 82 8q47 2 86 14v41q4 33 4 43q0 45 -4 86q-2 37 -21 78h-31q-51 0 -98 -22q-43 -25 -96 -25q-25 0 -52.5 5t-27.5 34v18
q25 4 61.5 13.5t75.5 21.5q39 8 77 19.5t69 23.5q10 6 10 10v13q0 35 -5 70.5t-5 72.5v27q16 12 26 12t17 -10q10 -13 16 -27t11 -30.5t7 -24.5l11 -49q10 -39 12 -52l23 -22v-449q0 -47 -17.5 -98t-50.5 -96q-29 -45 -71 -72.5t-93 -27.5q-39 0 -79 17t-40 69zM1409 1237
q20 0 34.5 -19.5t14.5 -39.5q0 -33 -31 -33q-20 0 -35 12l-112 -33q-6 -22 -23.5 -33.5t-36.5 -11.5q0 35 17.5 65t45 50t61.5 31.5t65 11.5z" />
    <glyph glyph-name="uni653F" unicode="&#x653f;" 
d="M868 111q0 12 2 20q6 4 21 12q14 -10 20 -27.5l12 -35t17.5 -29.5t34.5 -12q2 0 6 4h10q14 18 38.5 48t48.5 66t41 71.5t17 66.5q0 14 -22 22l-47 17q-25 10 -45 28q-21 15 -21 50q0 18 11.5 21t25.5 3h12q9 0 9 -4l129 -67l172 405q14 14 34.5 39t22.5 49l-2 2h-4
q-45 0 -91 -23.5t-92.5 -50t-95.5 -50t-102 -23.5h-27q-12 18 -12 31.5t10 32t25 28.5l256 424q35 57 51 125q20 67 27 131q12 24 34 24q15 0 32.5 -19.5t12.5 -37.5l-57 -178l-268 -461h45l446 203q2 0 9 2h10q18 0 23 -10.5t5 -26.5q0 -8 -1 -12t-11 -11l-168 -75
q-4 -4 -12 -11q-4 -6 0 -14l-201 -514v-31q0 -6 12 -12q5 -6 28.5 -20.5t49.5 -28.5q29 -19 49 -33q25 -16 31 -20l31 -25l45 -39q25 -18 42 -40.5t17 -36t-5 -26t-29 0.5l-91 30l-190 158q-14 12 -35 12q-8 0 -8 -2q-78 -139 -170 -256q-10 -12 -23 -12h-22
q-25 0 -46.5 13.5t-38.5 36t-27.5 48t-10.5 50.5zM444 133q0 53 -8 107q-4 49 -14.5 99t-17.5 100t-7 102v37q0 26 2 34q2 13 23 13q16 0 22 -13q12 -102 39 -194t39 -197h10q35 0 73 23.5t62 44.5q-22 2 -33.5 23.5t-11.5 41.5q0 156 13.5 310.5t44.5 306.5q-11 12 -19 12
q-26 0 -51 -4q-23 -8 -49 -8q-19 0 -41.5 5t-22.5 34q0 10 42 23.5t96.5 24.5t104.5 18t67 7h49q10 -12 10 -18q2 -10 2 -23.5t-11 -20.5t-26.5 -11t-31 -6.5t-21.5 -10.5q-25 -22 -37 -60t-18 -79q-2 -43 -2 -82v-100q2 -27 2 -37l180 55h4q31 0 31 -26q0 -13 -6 -23
q-3 -12 -19 -16q-35 -13 -94 -21q-55 -8 -96 -24l-13 -13q0 -6 -2 -26l-4 -43q0 -25 -2 -45v-29q0 -4 -4 -8v-13q0 -26 5 -41.5t20 -52.5q47 29 94 44.5t100 15.5q0 -27 -18.5 -40.5t-42.5 -19.5l-277 -153q-20 -6 -52 -20.5t-56 -14.5h-19q-6 0 -8 12z" />
    <glyph glyph-name="uni670D" unicode="&#x670d;" 
d="M677 170q0 4 4 10q4 2 8 2l44 -35v123q0 193 -9.5 384.5t-13.5 383.5v224q0 14 -1 33.5t-7 37t-17.5 29.5t-29.5 12q-45 0 -79 -60.5t-58.5 -137t-40.5 -150.5q-13 -74 -15 -102q-2 -15 -10 -68q-4 -55 -11.5 -117.5t-14.5 -117t-7 -68.5q-4 -4 -4 -41v-141q4 -15 5 -20
t4 -12t3 -11v-19q4 -14 5 -29.5t1 -31.5v-19q-47 0 -76.5 25t-29.5 74v247l80 472v12q8 45 28.5 113.5t49.5 136.5q32 63 76.5 109t103.5 46q39 0 63 -18q27 -23 41.5 -54.5t22.5 -69.5t8 -71l14 -499q11 -248 11 -496v-59q2 -43 -4 -91q-2 -47 -11.5 -84.5t-32 -43
t-42.5 19.5q-17 25 -31 57q-12 29 -21 62q-6 28 -6 37v16zM1218 154q0 16 8 28q12 11 29 21q14 6 28.5 11t22.5 13q6 4 15.5 15.5t18.5 22.5t15 19.5t6 10.5v10q-41 12 -76.5 26.5t-35.5 63.5q0 21 5 28t25 7q39 0 70 -16q35 -19 78 -19q18 0 40.5 34t41.5 81q20 43 32.5 89
t12.5 67q0 53 -41 60t-84 7q-64 0 -119 -24q-51 -25 -95 -63t-80 -87t-65 -96q-6 -10 -17 -30.5t-11 -26.5v-246q0 -6 -20.5 -15.5t-24.5 -9.5q-21 0 -31 15.5t-14 33.5l-4 39v465q0 2 2 31q4 24 10 55l8 64l12 53q25 127 55.5 255t77.5 251q31 37 70 56.5t80 31.5
q45 10 89 12t89 2q74 0 128 -25.5t54 -109.5q0 -68 -32 -135q-29 -68 -77 -129.5t-106 -116.5q-53 -53 -102 -92q-12 -10 -27.5 -27.5t-33.5 -17.5q-23 0 -33 12q-6 12 -6 33q0 29 9 41t24.5 19t32 14.5t34.5 25.5l72 76q39 41 72.5 89t57 98.5t23.5 103.5v39
q-22 18 -37.5 21t-42.5 3q-55 0 -127.5 -6t-117.5 -41q-11 -49 -26 -72.5t-32 -62.5q-47 -152 -85 -320.5t-38 -332.5v-19q2 -4 11 -14q30 51 73 98t95.5 83t111.5 59q58 18 119 18q82 0 139 -29q58 -32 58 -115t-29 -154t-72 -138q8 -6 27 -17l45 -18l45 -23q20 -10 29 -12
q24 -10 35.5 -11t11.5 -34q0 -16 -13.5 -24.5t-25.5 -8.5q-55 0 -107.5 16.5t-101.5 39.5l-102 -101q-9 -8 -24 -20t-32 -21q-18 -12 -34.5 -20t-26.5 -8q-39 0 -39 41zM472 614q0 23 14.5 33t35 10t24.5 -12q8 -12 8 -33q0 -37 -41 -37q-16 0 -28.5 10.5t-12.5 28.5z
M538 915q0 17 5 24t26 7q24 0 52 -14t34 -41q4 -19 -13 -25q-14 -10 -26 -10q-33 0 -55.5 14.5t-22.5 44.5z" />
    <glyph glyph-name="uni683C" unicode="&#x683c;" 
d="M1023 106v11q0 4 2 6q2 18 12.5 61t21.5 92.5t17 92.5q11 43 15 58t11 37.5t19.5 41t30 26t41.5 -3.5q70 33 154 63t162 30q36 0 70 -5.5t52 -42.5q23 -38 50 -104q30 -63 30 -115q0 -63 -71.5 -123.5t-167 -108.5t-191.5 -75t-145 -24q-37 2 -75 21t-38 62zM542 80v37
q0 24 -4 53v88q0 162 5 324.5t5 324.5q-41 0 -79 -14t-81 -14q-51 0 -51 43v22q53 27 115 41q65 16 121 29q2 8 6 37.5t6 62.5q6 31 8 62q4 26 4 38.5t-2 34.5q-2 19 -2 40.5t7 35.5t29.5 14t36 -12t19.5 -29q8 -20 10.5 -41.5t2.5 -39.5q0 -41 -2.5 -76t-10.5 -84
q6 -10 13 -10q10 -3 18 -3q25 0 29 19q6 14 10 41q33 -4 53 -29q25 -28 25 -59v-21q0 -14 -13 -16l-51 -10q-37 -8 -49 -13q-22 -4 -35.5 -10t-19.5 -35q-13 -43 -12 -78.5t1 -76.5q-8 -172 -19 -338t-5 -338q-8 -12 -22.5 -18.5t-28 -6.5t-23.5 3t-14 22zM1123 141
q0 -24 12.5 -27t35.5 -3q30 0 107 23.5t156 58t136 77.5q61 43 61 84q0 25 -8 60q-8 30 -24 61q-19 27 -42.5 46.5t-54.5 19.5h-6l-37 -11q-24 -6 -53 -16t-53 -16q-25 -11 -35 -13q-39 -16 -88 -34q-49 -23 -59 -68q-2 -14 -11 -49q-4 -33 -12 -69t-14 -66.5t-8 -40.5
q0 -2 -3 -8v-9zM853 444v11q2 6 2 8l359 336q4 2 11 11t13 21q10 11 16.5 23t6.5 18q0 23 -47 33q-45 6 -99.5 16.5t-99.5 24.5q-41 15 -37 45q2 4 10.5 16.5t12.5 18.5h47q37 0 71 -10l68 -21q37 -12 72 -18q34 -10 69 -10q27 0 41.5 30.5t26.5 49.5q8 16 19.5 37.5
t19.5 43.5q12 21 20 36.5t8 17.5v22q-34 -6 -76 -23.5t-83 -31.5q-41 -19 -78 -32t-66 -13q-20 0 -33.5 16.5t-13.5 32.5v23q2 6 13 16l215 248q2 4 9 7t11 3q18 0 31 -16q14 -21 14 -33q0 -19 -17.5 -34t-26.5 -27.5t-26 -26.5l-24 -35q-12 -16 -21 -29l-8 -12v-10l193 57
h8q43 0 56.5 -16.5t23.5 -53.5l-10 -26q-9 -23 -17 -46.5t-18 -41.5q-6 -23 -11.5 -32t-17.5 -26q-12 -20 -27 -38l-24 -39q-10 -21 -10 -35v-8q61 -41 146 -59.5t159 -6.5q4 -2 11 -11t9 -11v-5q0 -28 -24 -45q-25 -20 -45 -20q-47 0 -93 12q-40 12 -83 29q-39 14 -75 26.5
t-67 12.5h-6q-4 -2 -16 -15l-17 -18q-6 -4 -17 -19.5t-23.5 -31t-24.5 -29.5l-15 -22l-301 -281q-18 -14 -28 -20q-6 -5 -25 -5q-41 0 -41 41zM292 506q8 10 19.5 29.5t25.5 39.5q14 17 33 33q16 13 33 13q43 0 69 -35q-8 -21 -20 -43q-8 -25 -27 -43q-14 -23 -35 -37
q-16 -14 -37 -14q-53 0 -61 57zM775 750q0 12 4 32q9 17 25 17q35 0 54.5 -23.5t19.5 -56.5q0 -21 -13.5 -28t-31.5 -7q-27 0 -42.5 19.5t-15.5 46.5z" />
    <glyph glyph-name="uni7279" unicode="&#x7279;" 
d="M1026 182q28 0 53 -12q29 -14 53 -29q27 -18 53.5 -31.5t59.5 -13.5q39 0 68.5 17.5t33.5 64.5q2 17 8 62q7 41 15 90t12 94q8 41 10 57q0 11 -3 40.5t-3 37.5q-2 0 -8 2h-8q-27 -2 -73 -8t-92 -11t-83 -10.5t-45 -5.5q-4 0 -18 -2q-17 -6 -32.5 -9t-33.5 -5
q-14 -6 -16 -6h-13q-12 0 -17 1t-18 11q13 37 52 57q43 17 95 26t110.5 12t106.5 10.5t79 23.5q33 12 33 43q0 21 -9 43q-4 19 -4 39q0 6 2 16.5t13.5 10.5t27.5 -11q21 -12 23 -24l22 -100h15q35 0 69.5 12t67.5 12q22 0 43.5 -13.5t21.5 -39.5q0 -12 -3 -18.5t-21 -10.5
l-180 -20l-13 -13q-4 -53 -12 -96q-4 -39 -12 -82q-4 -41 -8 -67q-4 -43 -13 -93q-4 -51 -18 -96t-47 -75.5t-88 -30.5q-31 0 -74 12q-43 8 -83 29.5t-69.5 48t-29.5 61.5zM659 182q0 99 14 199q19 100 21 203v73q0 52 -1 110t-3 114v71q-92 0 -167 -46t-132 -109h-12
q-25 0 -25 23.5t12.5 34.5t23.5 42t17 61.5t13.5 61.5t18.5 57.5t32 46.5v4q0 13 -8 17q-5 4 -5 18q0 11 2.5 19t14.5 8q8 0 12 -2q8 -2 14 -8q5 -11 7 -39q4 -33 6 -39v-12q0 -7 -2 -21l-4 -29q0 -18 -3.5 -33.5t-3.5 -17.5v-6q0 -2 3.5 -3t33 4t62.5 13q37 11 67.5 23
t38.5 24q17 80 23 162t10 164q-4 19 7 22t22 3q20 0 26 -23q11 -24 13 -54t0 -58v-43q0 -35 -7 -66q-6 -35 -6 -70q0 -14 19 -14q24 0 36.5 7t16.5 16q8 6 12 14t17 8h37q20 0 37.5 -5t28.5 -16.5t11 -35.5q0 -8 -12 -13q-10 -8 -23.5 -11t-25.5 -6t-19 -3q-12 -4 -34 -8
q-19 -8 -39 -13q-25 -8 -49 -12l-13 -12l-2 -19q-2 -16 -3 -39.5t-5 -48.5v-266q0 -4 -3 -26.5t-9 -42.5q-2 -25 -5 -47.5t-3 -26.5v-170q0 -15 -4 -39q0 -25 -4.5 -48.5t-14.5 -42t-27 -18.5q-22 0 -41 7q-14 6 -14 32zM1145 426q0 6 14 27q14 16 18 16q29 6 47 -16
q23 -25 23 -47.5t-7 -31.5t-28 -18q-27 11 -49 25q-18 14 -18 45zM524 565q0 21 20 31q19 6 43 12q25 2 48 2h32q0 -35 -30 -51q-27 -20 -56 -20q-12 0 -34.5 5t-22.5 21zM1280 967v135h-131q0 28 23.5 45.5t49.5 28.5q27 6 50 14q24 4 24 12v213q0 6 11.5 13.5t15.5 9.5
q12 2 20 -4q10 -11 14.5 -23t8.5 -24.5t4 -16.5q0 -8 -2 -31v-47q0 -24 -2 -45v-33q28 0 58 5.5t58 5.5q46 0 46 -51v-7q-7 -10 -13 -16l-10 -10h-125l-8 -23q-4 -22 -12 -49l-11 -51q-4 -27 -4 -38t8.5 -13t18.5 -2q69 0 138 18t134 18q17 0 18 -12t1 -22q0 -23 -7.5 -31
t-27.5 -16q-137 -21 -275.5 -34.5t-277.5 -13.5q0 33 22.5 48.5t53.5 23.5q32 4 63 8q33 0 55 2z" />
    <glyph glyph-name="uni76EE" unicode="&#x76ee;" 
d="M571 352v39q0 27 -2 60v98q0 125 13 246q12 116 12 237v39q-21 6 -28 20.5t-7 32.5v17q88 112 198.5 152t252.5 40q106 0 196 -27.5t153.5 -82t98.5 -133.5q35 -84 35 -195q0 -41 -10 -88q-6 -49 -35 -84l-248 -315q-4 -5 -33.5 -29.5t-68.5 -52.5q-39 -33 -82 -62
q-39 -31 -64 -47q-47 -33 -105.5 -56.5t-115.5 -23.5q-41 0 -68.5 21.5t-45 52.5t-29.5 70q-9 36 -17 71zM659 455q0 -17 2 -54q7 -39 13 -75q10 -41 27.5 -69t43.5 -28q35 0 74 17q43 14 83 38.5t77 52.5t63 50q11 6 29 25q16 14 33 30q20 15 33.5 27t19.5 18q12 15 41 54
q33 37 66 82q34 41 64 80.5t42 54.5q27 43 29 71q6 27 6 68q0 170 -95.5 258t-263.5 88q-30 0 -81.5 -3t-103.5 -13t-95 -27q-45 -20 -60 -49q-4 -25 -12 -84q-4 -61 -12 -127q-8 -70 -14.5 -131t-8.5 -86v-268zM772 629q0 30 33 45.5t59 15.5q47 0 47 -39q0 -35 -28 -53
q-25 -23 -56 -23q-55 0 -55 54zM782 905q0 23 19 35q18 8 39 8q26 0 53 -8q26 -12 26 -47t-20 -39q-23 -8 -50.5 -8t-47 14t-19.5 45z" />
    <glyph glyph-name="uni7CFB" unicode="&#x7cfb;" 
d="M911 35q2 12 15 12q30 0 54.5 -23.5t57.5 -23.5q27 0 36 24.5t13 45.5q2 12 2 51v49q0 125 -15 251t-15 251q-41 0 -78 -15l-74 -34q-37 -21 -73.5 -36.5t-77.5 -15.5q-13 0 -33 2q-17 0 -33 3.5t-28.5 13.5t-12.5 26v9q4 2 4 4l266 245v11q-32 0 -67 -6q-35 -11 -71 -21
t-70 -16q-33 -11 -70 -11q-21 0 -49 11q-31 6 -31 32q0 21 19.5 35.5t37.5 20.5l494 325q4 5 20.5 14t36 21.5t38 22.5t28.5 10q20 0 41 -12q24 -13 24 -39q0 -31 -27.5 -38t-49.5 -3l-469 -289v-12q59 10 102 22q45 9 84 25q41 12 83 25.5t99 27.5q2 2 6 2h11q22 0 34 -16
q15 -21 15 -39q0 -6 -3 -13.5t-8 -9.5q-90 -32 -153 -86q-62 -57 -137 -116q-17 -13 -26 -20t-16.5 -14t-15.5 -18l-20 -26h10q8 0 29.5 5t27.5 5q17 6 65 23.5t101 37.5l103 37q49 17 67 25q11 4 37 10q31 4 31 25q0 14 -8 26q-4 11 -4 25t6 27q10 12 26 12q11 0 11 -2
q14 -15 41.5 -35.5t53 -42t45 -46t19.5 -48.5q0 -2 -2 -8v-11q-4 -4 -26 -6q-23 -6 -31 -2q-2 0 -11.5 4t-20.5 9.5t-21 13.5q-11 4 -13 4h-12q-2 0 -2 2q-6 0 -35 -4l-61 -17q-33 -10 -60.5 -22t-29.5 -25l-23 -100q2 -29 6 -94q8 -66 17 -140q6 -77 12 -143l8 -94v-12
q0 -19 -4 -48.5t-15.5 -59.5t-31.5 -48q-16 -23 -47 -23q-53 0 -90 35q-35 31 -66 66zM661 281q0 22 6.5 56t38.5 34q15 0 23 -9q10 -12 14 -27.5t7.5 -30.5t3.5 -23.5t-7 -22.5q-2 -16 -6 -22h-12q-27 0 -47.5 9t-20.5 36zM1390 428q0 21 5 37q8 16 34 16q41 0 51.5 -12
t10.5 -53q0 -21 -19.5 -33t-36.5 -12q-28 0 -38 16q-7 14 -7 41zM653 1210q0 13 13.5 27t19.5 18q127 66 232.5 140.5t226.5 138.5q2 2 12 2q20 0 26.5 -17.5t6.5 -35.5q0 -10 -4 -22.5t-12.5 -24t-17.5 -16.5t-22 3l-403 -235h-70q-2 0 -6 10q-2 6 -2 12z" />
    <glyph glyph-name="uni8054" unicode="&#x8054;" 
d="M1048 68l135 596h-158q-12 0 -12 14v37q0 12 12 16q8 0 27.5 3t38.5 9q22 2 41.5 5.5t27.5 3.5q11 4 25 8t20 16q2 10 7.5 36t9.5 56l10 54q4 24 6 34v11q-2 0 -5 1t-6 0t-16.5 -6.5t-15.5 -5.5q-8 -2 -25.5 -5t-38 -6t-36.5 -5q-19 -6 -25 -6q-6 -6 -20 -19
q-13 -16 -25 -16q-24 0 -59 10q-31 11 -31 39q0 25 33 43q35 15 82 27l94 20q49 9 74 19q-13 12 -29 33q-12 16 -16 34q-2 6 -2 31v33q0 14 -1 39.5t2 50.5t13 45q12 16 36.5 16t32 -17t7.5 -38v-12q0 -10 -5.5 -40t-5.5 -40q9 -14 16 -16t14 -2t13.5 -3.5t12.5 -13.5
q10 -16 23.5 -41.5t39.5 -25.5l4 2q17 2 53.5 9t76.5 17t77 17.5t51 13.5q23 4 28 6t5 6h37q27 0 42 -11t15 -44v-14q0 -9 -12 -12t-45 -5q-29 -6 -63 -10q-33 -8 -64 -13t-43 -8l-98 -16q-56 -12 -92 -37q-5 -8 -9 -26q-4 -23 -9 -47.5t-10 -46t-6 -27.5t1 -20.5t2 -18.5
q37 0 69 12q35 8 66 25q35 14 67.5 25.5t69.5 11.5q13 0 25 -7q16 -6 16 -24q0 -31 -33.5 -41t-58.5 -21l-41 -14q-33 -12 -72 -24.5t-72.5 -24.5t-39.5 -14q-2 0 -10.5 -5.5t-12.5 -7.5q-4 -26 -22 -96q-15 -70 -32 -145.5t-32.5 -144t-23.5 -95.5q-2 -6 -7.5 -19.5
t-5.5 -15.5v-6q0 -12 4 -18q9 -11 9 -23t-5.5 -35.5t-14.5 -45t-27 -38.5q-15 -16 -35 -16q-25 0 -34 17.5t-9 41.5v11zM790 111q14 284 22 563.5t21 562.5l-6 27q-3 14 -15 20v88l-350 -80h-16q-15 0 -27 8.5t-12 28t16 41t39 25.5l608 78q2 0 6 2h11q28 0 57 -11.5
t29 -44.5v-18q0 -15 -13 -17h-192q-19 -2 -53.5 -6t-36.5 -6l-11 -10q25 -21 36.5 -54.5t13.5 -73.5t0 -77t-2 -61v-37q0 -25 -2 -49v-66q-7 -211 -15 -421t-20 -423q0 -20 -11.5 -43.5t-37 -23.5t-32.5 17.5t-7 35.5v25zM1328 332q0 20 14.5 32.5t30.5 16.5q23 -4 67 -16.5
t87 -32t75.5 -47t32.5 -62.5q0 -20 -24 -20q-21 0 -34 13t-34 20q-6 4 -33.5 11t-57.5 16t-56.5 18.5t-34.5 11.5q-12 4 -25 14q-8 8 -8 25zM292 328q0 16 16 24q15 4 31 6h100q9 4 33.5 12.5t50.5 18.5q31 10 55.5 18.5t30.5 8.5q2 0 23 2h61q23 -2 27 -2
q18 -13 32.5 -33.5t14.5 -40.5q0 -16 -14 -16h-51q-13 0 -25 12q-31 -8 -68 -23q-36 -18 -75 -32.5t-77 -25.5t-72 -11t-63.5 23.5t-29.5 58.5zM450 457v16q0 8 2 12q8 99 10 199t10 200.5t20.5 202t39.5 197.5q10 21 30 21q25 0 25 -29q0 -12 -1 -19.5t-11 -19.5
q6 -147 -9.5 -292.5t-15.5 -293.5v-39q4 -28 4 -39q2 -2 5 -11t3 -11v-4q0 -17 -4 -37q-2 -25 -11 -48.5t-22.5 -41t-31.5 -17.5q-25 0 -34 17.5t-9 36.5zM562 635q0 27 33 35q35 4 53 4q41 0 41 -39q0 -31 -28 -35q-25 -4 -50 -4q-20 0 -36 6q-13 8 -13 33zM630 856
q0 35 23.5 39t52.5 4q16 0 44.5 -3t28.5 -30q0 -16 -10 -25.5t-24.5 -14.5t-30.5 -6t-23.5 -1t-25.5 2h-23q-12 2 -12 15v20zM1463 1176q0 24 12.5 38.5t20.5 34.5q29 54 33 98t2 115q2 13 12 13h15q20 0 30.5 -12.5t14.5 -30t4 -35.5q4 -21 4 -35q0 -27 -9.5 -62.5
t-25.5 -64.5q-18 -33 -44 -55.5t-56 -22.5q-13 0 -13 19z" />
    <glyph glyph-name="uni8350" unicode="&#x8350;" 
d="M612 -160q0 15 -1 54.5t-2 82.5t-3 81t-2 53v12h-12q-12 0 -29 -27q-12 -26 -27.5 -58t-37 -59.5t-47.5 -27.5q-13 0 -27 8q-12 4 -12 23v6q2 6 4 18q6 12 8 17q8 10 24.5 36.5t37 56t37 56.5t24.5 39q2 6 15 37t20 43v6q0 29 -10.5 54.5t-22.5 49.5l-19 50q-8 24 -8 49
q0 28 33 28q18 0 28.5 -13t16.5 -30l16 -34q7 -19 21 -25l10 12l101 258v35h-9q-16 -6 -53 -13t-78 -17.5t-76.5 -17.5t-50.5 -9q-8 0 -24.5 -2t-32.5 -2l-35 -6q-14 -2 -22 -2q-7 4 -16 12t-9 16q0 17 28.5 31t65.5 25.5t70 18.5t41 9t39 10q35 4 72.5 13.5t71.5 15.5t42 8
q37 8 66 45q26 33 45 76q22 39 37 72q18 30 32 30h86q0 -12 -8 -18q-4 -8 -14 -12q-6 -6 -15.5 -11.5t-15.5 -13.5t-16 -24q-6 -21 -17.5 -43.5t-21.5 -42t-13 -25.5h23l471 90h92q13 0 13 -14v-23q0 -14 -3.5 -20t-21.5 -13l-608 -122q-2 0 -9 -7q-8 -10 -12 -14
q-6 -8 -15 -27.5t-20.5 -42t-21.5 -38.5l-23 -62q-10 -31 -22 -62.5t-21 -58.5l-12 -37q0 -4 -8 -16t-15.5 -27.5t-14.5 -29t-7 -15.5v-141q2 -39 10 -94l27 -29q8 -8 8 -28q0 -3 -6 -35q-2 -35 -12 -74q-7 -41 -25 -74q-14 -35 -37 -35q-14 0 -21.5 9.5t-13.5 25.5z
M1210 -35q0 12 2 25q7 10 21 10q10 0 12 -1t15.5 -6t15.5 -5q18 0 32.5 12t24.5 33q13 16 17 37q8 16 8 28q0 21 -10.5 46.5t-24.5 49t-37 39.5q-18 15 -41 15h-6q-2 -2 -6 -2h-10l-318 -78q-14 -12 -31 -12q-28 0 -54.5 9t-26.5 42q0 12 2 24q6 11 21 14t50 11q35 4 74 12
t75 14.5t48 8.5q4 0 22.5 6t43 13t47 14.5t34.5 13.5q17 4 32 30.5t26 59.5q8 29 14 58.5t6 41.5q0 21 -14 38.5t-29 29.5q-6 0 -24 2h-23q-35 0 -65 -10l-60 -25q-31 -14 -58.5 -25.5t-54.5 -11.5q0 39 26 67t62.5 46t78.5 26.5t71 8.5q76 0 118 -38t42 -110
q0 -39 -11.5 -72.5t-11.5 -70.5q80 0 150 29q74 26 153 26h43q25 -12 25 -32q0 -7 -2 -19t-10 -18l-314 -78q-24 -6 -24 -15q0 -12 12 -32.5t27.5 -46t28 -53t12.5 -58.5q0 -27 -14.5 -58.5t-39 -61t-57.5 -50.5q-29 -18 -58.5 -18t-43.5 22q-13 19 -13 45zM827 1272
q-10 0 -33.5 1t-50.5 3l-51 4h-45q-2 0 -12 -3t-23 -5q-8 -6 -18 -9t-12 -3h-9q-18 0 -28 13t-10 30q0 26 38.5 36.5t87.5 12.5h95q47 0 61 8q0 14 2 43t10.5 56.5t22.5 49t39 21.5q20 0 29.5 -12.5t9.5 -32.5q0 -33 -5 -60.5t-5 -60.5h43q28 -2 63 -2h64q30 -2 43 -2
q32 2 47.5 6t17.5 37l25 239q0 17 7 20t19 3q33 0 43 -29q8 -24 8 -51q0 -49 -4 -99t-4 -102q70 0 142.5 11.5t144.5 11.5q20 0 27 -4q10 -4 10 -27q0 -14 -2 -22t-21 -17q-77 -22 -159 -28q-78 -9 -158 -29q4 -12 1 -36.5t-13 -49.5q-7 -25 -19 -41q-12 -20 -31 -20
q-4 0 -16 4q-10 0 -10 8v127l-12 8h-17q-8 0 -12 4h-10q-58 0 -103 -4t-104 -8q-13 -12 -13 -37v-49q0 -25 -6 -43.5t-29.5 -18.5t-35.5 18.5t-15.5 43t-3.5 49.5v37z" />
    <glyph glyph-name="uni89C8" unicode="&#x89c8;" 
d="M895 193q-2 -9 -8.5 -26t-12.5 -36q-8 -22 -16 -39q-4 -18 -6 -24q-6 -17 -24.5 -48.5t-44 -31.5t-30.5 20q-6 17 -6 35v14q0 4 4 11l66 147l100 381q2 4 15 37q16 31 32 41q13 12 23 12q18 -4 22 -16q3 -17 3 -29q0 -2 -3 -4v-16l-67 -271v-35q0 -2 8 -22l47 -103
q15 -28 25 -45q20 -41 56 -83t87 -42q62 0 123 43t114.5 94.5t94.5 96.5q43 41 65 41q0 -55 -43 -121q-38 -63 -97.5 -117.5t-127.5 -87.5q-69 -37 -123 -37q-43 0 -92 18.5t-70 59.5l-102 193zM1087 268q0 17 2 25t6.5 12t6.5 12q6 5 8 21l78 405v13q2 2 2 4
q0 22 -13.5 37.5t-32 24.5t-40 14.5t-39.5 7.5q-27 2 -66 -23.5t-57 -44.5q-41 -37 -83 -78t-77 -86q-31 -47 -53.5 -97t-22.5 -109h33v-91q0 -12 -18 -12h-17q-22 0 -38.5 13.5t-24.5 33.5q-8 17 -12.5 39.5t-4.5 38.5q0 61 48 145q47 80 112 158q70 76 144.5 128t130.5 52
q36 0 74 -7t67 -23q31 -21 50.5 -50.5t19.5 -70.5q0 -2 -2 -4v-13l-80 -415q-2 -15 -7.5 -35.5t-11.5 -36.5q-8 -20 -20.5 -32.5t-26.5 -12.5q-27 0 -33 20q-2 17 -2 37zM729 856q4 23 15.5 78t24.5 117.5t23.5 119t14.5 78.5v17q2 14 2 37l6 45q2 22 2 36v5q0 26 -8 51
q-4 22 -4 47q0 45 39 45q14 0 32.5 -7t18.5 -28v-213q-4 -22 -17.5 -80.5t-27 -123t-25.5 -122.5l-18 -79q-2 -13 -7.5 -46.5t-5.5 -46.5q-6 -12 -16 -12q-27 0 -38 25.5t-11 48.5v8zM1145 1126l16 17q12 12 16 14l7 4q16 0 52 -15.5t70 -31.5q35 -20 60 -39
q26 -22 26 -33.5t-8 -31.5q-4 -21 -22 -21q-15 0 -49 17q-31 16 -67 39.5t-65.5 47t-35.5 33.5zM477 1198v39q4 27 4 35q2 12 8 12h19q14 0 27.5 -5t23.5 -17q0 -9 2 -25l6 -37q2 -22 3 -39.5t1 -23.5q0 -31 -5 -55.5t-34 -24.5q-22 0 -34.5 17.5t-16.5 41t-4 47.5v35z
M1028 1128q0 2 2 9l227 383q13 22 39 22q21 0 29 -12q10 -17 10 -33q0 -20 -9 -36.5t-21.5 -33t-22.5 -30.5q-10 -19 -10 -39q10 0 41 -6q34 -4 43.5 -3t33.5 9l52 8q28 6 52.5 12t33.5 6h4q39 0 39 -38q0 -21 -8.5 -28t-24.5 -13q-80 -19 -164 -31q-80 -12 -164 -12
q-14 -11 -29.5 -40.5t-32 -61.5t-38 -56.5t-45.5 -24.5q-17 0 -27 12.5t-10 28.5v8z" />
    <glyph glyph-name="uni8BAF" unicode="&#x8baf;" 
d="M1321 406v30q0 21 -2 49v78q0 82 6 162l20 160q12 82 22.5 161.5t10.5 159.5q0 6 -4 11q0 6 -8 6h-90l-390 -103q-6 -4 -18 -14t-17.5 -7t-13.5 10t-8 11q-2 13 4 31q10 14 25.5 26.5t31 19.5t27.5 3q105 35 223 68q123 35 238 35h20q19 -3 23 -3q31 -14 33 -50t2 -62
q0 -80 -17.5 -153.5t-27.5 -147.5q-6 -43 -9.5 -78t-3.5 -66v-327q9 -25 17 -51q8 -31 23.5 -56.5t33.5 -42.5q23 -18 55 -18q48 0 78 31q35 28 62 61h26q0 -33 -14 -61q-12 -33 -35.5 -56.5t-52.5 -38t-62 -14.5q-98 0 -151 72q-53 67 -57 164zM571 346q0 72 12 141
q13 66 13 138q0 12 -1 19t-12 20h-28q-33 0 -56 -13q-18 -12 -35.5 -27.5t-35.5 -27.5q-15 -12 -37 -12q-15 0 -25 12q-8 8 -8 20q0 21 25 41q24 17 55 31q35 12 67.5 21.5t49.5 9.5q63 0 94 -55v-39q4 -29 4 -39q0 -70 -12.5 -134.5t-12.5 -132.5v-24q0 -14 17 -14l4 2
l145 145q10 10 22.5 12t24.5 2q0 -16 -12 -36q-49 -72 -86 -117q-37 -49 -102 -107h-11q-6 -2 -8 -2q-24 0 -35.5 21.5t-15.5 52.5q-2 27 -1 53.5t1 38.5zM962 436v21q0 12 1 17t3 30q6 22 9.5 48t5.5 50q6 23 6 27q0 8 -6 30q-2 23 -7 27q-18 -12 -34 -12h-35
q-10 0 -31.5 1t-21.5 21q0 6 4 19q8 12 18 28q8 13 19.5 22t20.5 9t15 -4q9 -8 19 -8q37 0 41 33.5t8 58.5q0 8 3 31.5t5 50.5q6 29 8 53q4 21 4 31q5 8 9 18q4 4 8 13q2 4 6 4q25 0 36 -19.5t11 -38.5q0 -41 -4 -83t-8 -83q0 -2 2 -8q6 -4 9 -4t21.5 6t24.5 6h43
q27 0 59.5 -7t32.5 -42v-18q0 -8 -12 -12q-55 6 -92 -5.5t-88 -15.5q-10 -86 -15 -172q-6 -90 -30 -176h-13q-6 -2 -8 -2q-30 0 -41 14q-6 13 -6 41zM493 1194q0 12 8 20q13 5 28 8t30 3h24q29 0 47.5 -18.5t18.5 -51.5q0 -18 -9.5 -30.5t-29.5 -12.5q-39 0 -78 18.5
t-39 63.5z" />
    <glyph glyph-name="uni8D44" unicode="&#x8d44;" 
d="M618 -96v22q2 6 12 21.5t39 62.5t59.5 98.5t59 97.5t41.5 64l8 23q6 14 14 35q6 16 14.5 31.5t10.5 21.5l14 45q10 29 21.5 56.5t25.5 48t31.5 20.5t21.5 -12q9 -15 9 -27v-18q-9 -17 -23 -59t-35 -85q-16 -47 -35 -90q-14 -41 -20 -55q-4 -6 -19 -27l-14 -31q-2 0 -2 -6
q0 -20 40 -30.5t99 -14.5q60 -8 131.5 -12t130 -13.5t97.5 -23.5q43 -14 43 -39.5t-19.5 -32t-44.5 -6.5q-43 0 -97 13.5t-87 19.5q-70 12 -155 12t-148 -2l-35 35h-4q-10 0 -14 -10t-4 -19v-6q4 -2 8 -10t4 -12q0 -13 -19 -31q-18 -22 -43.5 -41.5t-51 -35t-38.5 -15.5
q-16 0 -21 12t-5 25zM1074 209q0 8 20.5 31.5t26.5 29.5l19 56q12 30 22.5 66t17.5 71t7 59q0 15 -1 41.5t-22 32.5q-49 25 -79.5 40t-73.5 15q-57 0 -107 -30q-47 -35 -85 -83.5t-61.5 -105.5t-29.5 -104q0 -6 4 -35q9 -29 9 -35q0 -16 -9.5 -42t-29.5 -26q-11 0 -26 3.5
t-15 21.5v166q32 55 61 117q33 57 70 110q39 49 90 80q55 33 133 33q45 0 89 -11.5t80 -36t59.5 -60t23.5 -85.5v-24q-4 -15 -12.5 -49.5t-19.5 -73.5t-20.5 -74t-15.5 -49q-2 -4 -10 -16q-4 -15 -12 -27q-6 -16 -15 -29q-4 -12 -6 -16q-20 -12 -35 -12q-18 0 -32.5 17.5
t-14.5 33.5zM771 762v8q4 2 4 4l17 35l26 49q15 27 27 50.5t18 33.5q2 4 7.5 16.5t5.5 18.5l-13 8l-8 16q-4 7 -2 7q2 10 10 18l15 8q10 4 17 7t11 14l103 223v22q-17 -10 -29 -11t-29 -1q-45 0 -45 39q0 10 23 57q22 43 52 91.5t59.5 88.5t46.5 40q12 0 26.5 -15.5
t7.5 -32.5l-92 -170l293 70q2 2 19 2h24q53 0 95 -21.5t42 -78.5q0 -49 -17 -92t-46 -84t-62.5 -76t-66.5 -64q-2 -2 -12 -8q-7 -4 -11 -4q-16 0 -20 10q-4 7 -4 19v10q4 6 4 8q16 23 43 53q31 33 55.5 70t40.5 74q21 37 21 72q0 4 -5 16v16q-12 13 -36 13h-37
q-13 0 -44.5 -2.5t-62.5 -6.5q-32 -8 -58 -16t-28 -20q-4 -7 0 -23q2 -20 0 -23q-10 -12 -19 -13t-16 1h-12q-6 0 -10 -10l-100 -213v-23l24 -14q12 -6 23.5 -10t17.5 -10q25 -11 81 -23t115.5 -25.5t107.5 -22.5t54 -17q11 -11 12 -20t1 -21q0 -25 -29 -25h-4
q-25 2 -64.5 7t-77.5 11.5t-64.5 9.5t-30 3t-25.5 8l-45 16q-29 9 -55.5 18t-40.5 15q-2 0 -11.5 5t-11.5 7h-8q-14 0 -21.5 -11t-12.5 -25.5t-5 -30.5v-25l-100 -123q-2 -2 -9.5 -5t-13.5 -3q-12 0 -23.5 9.5t-11.5 21.5zM548 1014q0 24 18 37q17 8 41 14q25 2 52 2h47v-37
l-111 -65h-12q-23 0 -29 14t-6 35zM618 1311q0 22 25.5 40.5t45.5 18.5q25 0 31 -18q10 -19 10 -41q0 -19 -12 -25q-12 -10 -26.5 -10t-44 7t-29.5 28z" />
    <glyph glyph-name="uni9875" unicode="&#x9875;" 
d="M718 59l303 783q4 12 14.5 28.5t24.5 16.5q19 0 17 -17v-26q0 -62 -23 -113q-20 -55 -33 -115l-145 -346q-2 -4 -2 -6v-8q0 -14 6 -16q8 -7 8 -19t-18 -47q-15 -33 -37 -68q-19 -36 -41 -63q-23 -31 -35 -31q-39 0 -39 39v8zM1257 205l-170 10q-88 4 -168 33
q-12 4 -12 18q0 29 24.5 40t46.5 11h19q12 -2 14 -2h53l70 -6q37 -2 64.5 -3t35.5 -1q41 -4 82 -31.5t41 -76.5q0 -13 -2 -22t-20 -15q-17 14 -36.5 26.5t-41.5 18.5zM708 473q-2 4 -2 27v24q0 103 37 207q39 100 110 178l35 35q12 10 21.5 19.5t9.5 13.5v78q4 24 17.5 49.5
t26.5 50.5t24.5 49.5t11.5 50.5q0 13 -15 31q-16 14 -20 27q-12 -4 -42 -13.5t-65 -15.5q-30 -10 -63 -18q-29 -6 -41 -11h-25q-20 -2 -32 -2q-5 0 -27 2h-29q-12 5 -12 17v39q0 6 12 12q41 18 82 16q45 -4 86 7q62 14 120 33.5t114 35.5q59 19 118.5 31t122.5 12h84
q13 -2 34.5 -12t21.5 -27q0 -28 -21 -41q-94 8 -190 -4q-92 -12 -178 -39q0 -2 -5 -2v-6l5 -4q2 -6 14 -18.5t16 -14.5q2 -6 2 -26v-25q0 -49 -24 -86q-21 -39 -21 -88v-23q37 25 71 36.5t77 11.5q49 0 77.5 -26t44 -66t18.5 -84t3 -80v-60q0 -10 -6 -49t-10 -84t-13 -86
q-4 -39 -4 -49q-6 -27 -13 -41t-40 -14q-27 0 -46.5 26.5t-19.5 52.5q27 0 37.5 9.5t14.5 33.5q0 11 2 43q6 35 9 75t7 74t4 44v39q0 14 -2 45q-2 27 -10 55.5t-21.5 50t-35.5 21.5q-19 0 -46.5 -11.5t-41.5 -19.5q-48 -33 -98 -70.5t-90 -85t-68 -100.5q-25 -57 -25 -121
v-26q20 2 22.5 -8.5t2.5 -18.5q0 -12 -6.5 -30.5t-15.5 -37t-21.5 -30.5t-25.5 -12t-25.5 2t-18.5 22z" />
    <glyph glyph-name="uni9879" unicode="&#x9879;" 
d="M1024 39q14 20 43.5 70.5t61.5 106.5t58.5 108.5t36.5 74.5q9 15 28.5 76.5t41.5 132.5l66 205q2 8 7 19.5t10 23.5t10 21.5t5 13.5q4 6 15.5 18.5t23 23.5t17.5 19q10 6 12 6h22q0 -47 -22 -86q-18 -38 -33 -79l-22 -68q-15 -53 -35 -113q-17 -61 -35 -112
q-16 -56 -21.5 -68t-18.5 -44t-32 -66q-14 -37 -28.5 -69t-22.5 -44h8q25 0 47 8q21 4 50 4h24q17 -2 19 -2l223 -78q10 -16 24 -20q17 -8 31 -12q14 -9 25 -15q10 -10 10 -31q0 -14 -3 -23t-20 -9q-26 0 -46.5 12t-41.5 20q-12 5 -49 17l-78 26l-77 29q-37 12 -54 19
q-22 6 -57 13t-57 7q-15 0 -26 -28.5t-23.5 -64.5t-29 -65.5t-44.5 -29.5q-43 0 -43 39v14zM1059 512q4 43 8 98q6 52 16 109q8 53 23.5 104t40.5 92q34 50 65 91q35 41 58 98q26 65 43 137q20 70 57 131q-12 0 -41 2l-66 4q-32 0 -62 3t-42 3q-8 0 -22.5 3.5t-28 11.5
t-23.5 20q-10 8 -6 21q6 18 15.5 20t21.5 2q49 0 98 -4q53 -8 103 -8q63 0 125.5 17.5t126.5 17.5q36 0 36 -45v-17q0 -14 -12 -16h-24l-31 -6q-19 -2 -34 -3t-20.5 -2t-18.5 -11.5t-16 -11.5t-14 -3q-8 -6 -8 -8q-4 -4 -8 -20.5t-9 -36t-11 -37.5l-7 -29
q-12 -27 -25.5 -64.5t-19.5 -70.5q105 16 170 -4q66 -25 106 -78t55 -129t15 -162q0 -18 3.5 -62t-3.5 -89q-2 -45 -13 -80t-36 -35q-12 0 -24 12q-8 12 -18.5 28.5t-15.5 32t-5 23.5q0 14 17.5 14t17.5 15v246q0 34 -12.5 70t-35 65.5t-53 48t-67.5 18.5q-88 0 -144 -80
q-6 -4 -12 -27.5t-10 -27.5q-12 -10 -22.5 -11t-20.5 1h-15q-4 -2 -12 -12q-4 -13 -17.5 -37.5t-13.5 -30.5q-4 -12 -10 -37l-10 -53q-4 -29 -9 -53.5t-5 -34.5q-7 -49 1.5 -107.5t-12.5 -107.5q-4 -8 -12 -8q-8 -4 -16 -4q-37 0 -45 34q-4 35 -4 62v8zM450 596
q0 31 23.5 40t50.5 11q31 2 55 10q27 5 31 33q10 78 21.5 171t11.5 167q-10 0 -37 2l-55 4q-27 0 -54 4h-34q-2 0 -12.5 -4t-22.5 -6q-8 -6 -18.5 -9t-12.5 -3l-6 -2q-2 0 -4 2h-2q-6 2 -19 14q-8 12 -14 17q25 32 68 57q12 0 43.5 4t67.5 7t67 9q33 2 45 2q43 4 83 26
t87 22q18 0 30.5 -10.5t12.5 -30t-14.5 -33t-34 -22.5t-41 -12t-33.5 -7v-12q-4 -7 -16.5 -32.5t-18.5 -33.5v-279q41 0 74 13q37 10 80 10q10 0 30 -2q25 -2 48.5 -7t42 -16.5t18.5 -24.5t-39 -16l-88 -12q-51 -8 -104 -22q-50 -15 -74 -47q-12 -17 -17 -19q-2 -6 -20 -6
t-29.5 7t-31.5 7q-25 0 -46 -4q-22 -8 -47 -8q-45 0 -45 41z" />
    <glyph glyph-name="uni9996" unicode="&#x9996;" 
d="M642 221q0 23 2 80q4 53 8 115.5t7 120.5q6 55 6 77l16 96t23.5 90t45 70.5t83.5 36.5q-4 25 1 49.5t12 48t11 48.5q8 22 8 47h-10q-72 -23 -130 -40.5t-128 -17.5q-27 0 -37 4.5t-10 32.5q0 23 12 35q17 12 36.5 19.5t41 9.5t37.5 2l461 123q37 12 96 12h197
q14 -6 16 -14q6 -6 6 -19q0 -16 -9 -23t-22.5 -9.5t-27.5 -2.5h-21l-129 -18q-37 -4 -69 -8q-29 -6 -37 -8q-4 0 -25 -4q-18 -9 -47 -13l-49 -16q-25 -6 -38 -11.5t-25.5 -32t-24.5 -61.5l-19 -69q-10 -35 -20 -51h35q63 0 122.5 12t123.5 12q86 0 148 -37t101 -96
q43 -59 60 -133q20 -76 20 -152q0 -4 -4 -22v-23q-24 -75 -94 -164.5t-161 -166t-191.5 -127t-186.5 -50.5q-45 0 -84 11.5t-71 33.5q-29 21 -49 58q-17 35 -17 84v61zM732 121q6 -23 25 -35q22 -14 43 -23h33q28 -2 34 -2q48 0 80.5 5.5t77.5 31.5q60 37 125 84
q70 47 126 102.5t94 122t38 146.5q0 49 -14.5 103.5t-44 101.5t-73.5 75.5t-103 28.5h-13l-370 -55l-13 -10q-2 -2 -8 -23q-2 -22 -10 -51l-8 -59q-6 -29 -8 -50q-11 -77 -11 -172v-321zM788 356q0 21 12 28t26 7q25 0 62 -4q37 -8 37 -41q0 -27 -17.5 -32t-38.5 -5
q-26 0 -55 8q-26 5 -26 39zM890 541q0 22 10 36.5t35 14.5q29 0 51.5 -2t22.5 -37q0 -4 -3 -14.5t-3 -12.5q-13 -12 -29 -12h-27q-20 0 -41 2q-16 0 -16 25zM720 1341q0 21 6 43q6 19 33 19q20 0 31.5 -12.5t16.5 -28.5t5 -35v-31q0 -18 -16 -22q-13 -6 -25 -6
q-33 0 -42 21.5t-9 51.5zM1035 1409q0 4 4 23q9 14 19 28l20 27q13 10 25 8q29 -8 32 -42t3 -54v-39q-4 -12 -17 -12h-18q-27 0 -49 14q-19 12 -19 47z" />
    <glyph glyph-name="uniF001" unicode="&#xf001;" horiz-adv-x="1073" 
 />
    <glyph glyph-name="uniF001" unicode="&#xfb01;" horiz-adv-x="1073" 
 />
    <glyph glyph-name="uniF002" unicode="&#xf002;" horiz-adv-x="1081" 
 />
    <glyph glyph-name="uniF002" unicode="&#xfb02;" horiz-adv-x="1081" 
 />
  </font>
</defs>
</svg>
